<svg xmlns="http://www.w3.org/2000/svg" xmlns:xlink="http://www.w3.org/1999/xlink" viewBox="0 0 249.45 164.41"><defs><style>.cls-1{fill:#fff;}.cls-13,.cls-2{fill:#4a6084;}.cls-3{clip-path:url(#clip-path);}.cls-4{fill:#8c99b2;}.cls-10,.cls-11,.cls-13,.cls-4,.cls-6,.cls-8,.cls-9{fill-rule:evenodd;}.cls-5{fill:none;}.cls-14,.cls-6{fill:#ccd5e3;}.cls-7{fill:#6ec2b6;}.cls-8{fill:#fbbc38;}.cls-9{fill:#92c249;}.cls-10{fill:#ec6734;}.cls-11{fill:#1dbae0;}.cls-12{fill:#805aa2;}</style><clipPath id="clip-path" transform="translate(0)"><rect class="cls-1" width="249.45" height="82.2"/></clipPath></defs><title>Carte_Visite_Verso</title><rect class="cls-2" y="82.2" width="249.45" height="82.2"/><rect class="cls-1" width="249.45" height="82.2"/><g class="cls-3"><path class="cls-4" d="M59.89,47.72a1.52,1.52,0,0,0-.38,1.16l1,6.69a2.73,2.73,0,0,1-1.81,2.91L45.5,62.66A1.55,1.55,0,0,1,44,62.24a1.31,1.31,0,0,1,0-1.85l2.67-2.67a.68.68,0,0,0,0-1L41.44,51.5,57.06,35.88A2.41,2.41,0,0,1,57,39.27a1.13,1.13,0,0,0,1.59,1.6,4.67,4.67,0,0,0,.05-6.58l6.53-6.53a2.27,2.27,0,0,1,.62,1l2,8.23a4.22,4.22,0,0,1-1,3.76Z" transform="translate(0)"/><rect class="cls-5" x="5.1" width="239.25" height="87.77"/><path class="cls-6" d="M65.18,27.76l-6.53,6.53,0,0a4.67,4.67,0,0,0-6.6,0,1.13,1.13,0,0,0,1.59,1.6,2.41,2.41,0,0,1,3.41,0l0,0L41.44,51.5h0l-5.26-5.26a.68.68,0,0,0-1,0l-2.67,2.67a1.31,1.31,0,0,1-1.85,0,1.55,1.55,0,0,1-.41-1.47l4.19-13.21a2.73,2.73,0,0,1,2.91-1.81l6.69,1A1.52,1.52,0,0,0,45.23,33l6.93-6.93a4.22,4.22,0,0,1,3.76-1l8.24,2A2.28,2.28,0,0,1,65.18,27.76Z" transform="translate(0)"/><circle class="cls-7" cx="30.81" cy="55.57" r="1.13" transform="translate(-30.27 38.06) rotate(-45)"/><path class="cls-8" d="M38.17,53.15a1.13,1.13,0,1,1,1.59,1.59l-5,5a1.13,1.13,0,1,1-1.59-1.59Z" transform="translate(0)"/><path class="cls-9" d="M30.79,60.53a1.13,1.13,0,1,1,1.59,1.59L29.9,64.6A1.13,1.13,0,1,1,28.3,63Z" transform="translate(0)"/><path class="cls-10" d="M34.9,49.88a1.13,1.13,0,1,1,1.59,1.59L34,54a1.13,1.13,0,1,1-1.59-1.59Z" transform="translate(0)"/><path class="cls-11" d="M39,58.82a1.13,1.13,0,1,1,1.59,1.59L38.13,62.9a1.13,1.13,0,1,1-1.59-1.59Z" transform="translate(0)"/><circle class="cls-12" cx="42.23" cy="57.21" r="1.13" transform="translate(-28.08 46.61) rotate(-45)"/><path class="cls-13" d="M195.76,53.17a1.35,1.35,0,0,1-.6-.49,1.25,1.25,0,0,1,.1-1.6,1.14,1.14,0,0,1,.88-.37,1.39,1.39,0,0,1,.57.12A14.33,14.33,0,0,0,202.58,52q5.21,0,5.21-3.4a1.89,1.89,0,0,0-.67-1.48,4.87,4.87,0,0,0-1.65-.93q-1-.34-2.8-.81a36,36,0,0,1-3.9-1.2,6.8,6.8,0,0,1-2.56-1.73,4.34,4.34,0,0,1-1.07-3.08,5.5,5.5,0,0,1,.89-3.06,6.13,6.13,0,0,1,2.64-2.19,9.83,9.83,0,0,1,4.18-.81,17,17,0,0,1,5.93,1,1.15,1.15,0,0,1,.83,1.18,1.29,1.29,0,0,1-.33.86,1.08,1.08,0,0,1-.86.38,1.38,1.38,0,0,1-.48-.12,14.65,14.65,0,0,0-4.79-.8,7.34,7.34,0,0,0-3.83.89,2.76,2.76,0,0,0-1.47,2.48,2.28,2.28,0,0,0,.7,1.73,4.81,4.81,0,0,0,1.76,1,27.84,27.84,0,0,0,2.87.78,30.08,30.08,0,0,1,3.8,1.12,6.22,6.22,0,0,1,2.47,1.75,4.7,4.7,0,0,1,1,3.19,5,5,0,0,1-1,3,6.25,6.25,0,0,1-2.68,2.06,10.07,10.07,0,0,1-4,.74A17.77,17.77,0,0,1,195.76,53.17Zm-12.82.89a1.26,1.26,0,0,1-.4-.95V45.57l-7.12-9.91a1.5,1.5,0,0,1-.24-.8,1.36,1.36,0,0,1,.37-1,1.23,1.23,0,0,1,.94-.4,1.37,1.37,0,0,1,1.19.68l7.56,10.92v8a1.28,1.28,0,0,1-.39.95,1.3,1.3,0,0,1-1,.38A1.35,1.35,0,0,1,182.94,54.06Zm-24.55-.89a1.35,1.35,0,0,1-.6-.49,1.25,1.25,0,0,1,.1-1.6,1.14,1.14,0,0,1,.88-.37,1.39,1.39,0,0,1,.57.12A14.33,14.33,0,0,0,165.2,52q5.21,0,5.21-3.4a1.89,1.89,0,0,0-.67-1.48,4.87,4.87,0,0,0-1.65-.93q-1-.34-2.8-.81a36,36,0,0,1-3.9-1.2,6.8,6.8,0,0,1-2.56-1.73,4.34,4.34,0,0,1-1.07-3.08,5.5,5.5,0,0,1,.89-3.06,6.13,6.13,0,0,1,2.64-2.19,9.83,9.83,0,0,1,4.18-.81,17,17,0,0,1,5.93,1,1.15,1.15,0,0,1,.83,1.18,1.29,1.29,0,0,1-.33.86,1.08,1.08,0,0,1-.86.38,1.38,1.38,0,0,1-.48-.12,14.65,14.65,0,0,0-4.79-.8,7.34,7.34,0,0,0-3.83.89,2.76,2.76,0,0,0-1.47,2.48,2.28,2.28,0,0,0,.7,1.73,4.81,4.81,0,0,0,1.76,1,27.84,27.84,0,0,0,2.87.78,30.08,30.08,0,0,1,3.8,1.12,6.21,6.21,0,0,1,2.47,1.75,4.7,4.7,0,0,1,1,3.19,4.94,4.94,0,0,1-1,3,6.25,6.25,0,0,1-2.68,2.06,10.07,10.07,0,0,1-4,.74A17.77,17.77,0,0,1,158.38,53.17ZM148.08,51a7,7,0,0,0,2.68-2.9,9.75,9.75,0,0,0,0-8.28,7,7,0,0,0-2.68-2.9,8.61,8.61,0,0,0-8.29,0,7,7,0,0,0-2.67,2.9,9.75,9.75,0,0,0,0,8.28,7,7,0,0,0,2.67,2.9,8.61,8.61,0,0,0,8.29,0Zm-9.62,2.22a9.35,9.35,0,0,1-3.63-3.76,12,12,0,0,1,0-11,9.35,9.35,0,0,1,3.63-3.76,11.68,11.68,0,0,1,10.94,0A9.46,9.46,0,0,1,153,38.48a11.79,11.79,0,0,1,0,11,9.46,9.46,0,0,1-3.63,3.77,11.68,11.68,0,0,1-10.94,0Zm-20.33.52a1.79,1.79,0,0,1-.55-1.32V34.86a1.33,1.33,0,0,1,.39-1,1.28,1.28,0,0,1,1-.4,1.32,1.32,0,0,1,1,.4,1.31,1.31,0,0,1,.4,1V51.6H130a1.32,1.32,0,0,1,1,.4,1.31,1.31,0,0,1,.4,1,1.26,1.26,0,0,1-.4.95,1.35,1.35,0,0,1-1,.38H119.46A1.81,1.81,0,0,1,118.13,53.75ZM99,53.91a1.28,1.28,0,0,1-.39-.95V35A1.33,1.33,0,0,1,99,34a1.28,1.28,0,0,1,1-.4h11.94a1.24,1.24,0,0,1,.91.37,1.22,1.22,0,0,1,.37.9,1.18,1.18,0,0,1-.37.89,1.27,1.27,0,0,1-.91.35H101.29V51.78h10.57a1.24,1.24,0,0,1,.91.37,1.22,1.22,0,0,1,.37.9,1.18,1.18,0,0,1-.37.89,1.27,1.27,0,0,1-.91.35H99.92A1.3,1.3,0,0,1,99,53.91Zm-13.31.15a1.28,1.28,0,0,1-.39-.95v-17H79.19a1.22,1.22,0,0,1-.89-.35,1.2,1.2,0,0,1-.36-.89,1.25,1.25,0,0,1,.36-.9,1.19,1.19,0,0,1,.89-.37H94a1.24,1.24,0,0,1,.91.37,1.22,1.22,0,0,1,.37.9,1.18,1.18,0,0,1-.37.89,1.27,1.27,0,0,1-.91.35H88v17a1.26,1.26,0,0,1-.4.95,1.35,1.35,0,0,1-1,.38A1.3,1.3,0,0,1,85.66,54.06Zm106.5-18.17a1.82,1.82,0,0,0,.33-1.13,1.23,1.23,0,0,0-.5-.93,1.32,1.32,0,0,0-1.09-.23,1.72,1.72,0,0,0-1,.67l-4.07,5.61a1.82,1.82,0,0,0-.33,1.13,1.23,1.23,0,0,0,.5.93,1.32,1.32,0,0,0,1.09.23,1.72,1.72,0,0,0,1-.67Zm-81.34,9.37a1.34,1.34,0,0,0,.89-.36,1.22,1.22,0,0,0,.37-.88,1.31,1.31,0,0,0-.37-.94,1.27,1.27,0,0,0-.89-.36h-5.55a1.34,1.34,0,0,0-.89.36A1.22,1.22,0,0,0,104,44a1.31,1.31,0,0,0,.37.94,1.27,1.27,0,0,0,.89.36Z" transform="translate(0)"/></g><path class="cls-1" d="M153.16,111.67a.44.44,0,0,1-.16-.21l-1-3a.37.37,0,0,1,0-.12.31.31,0,0,1,.09-.23.31.31,0,0,1,.23-.09.33.33,0,0,1,.18.05.27.27,0,0,1,.11.14l.83,2.75.83-2.68a.36.36,0,0,1,.35-.26.35.35,0,0,1,.22.07.36.36,0,0,1,.13.19l.83,2.68.83-2.75a.27.27,0,0,1,.11-.14.33.33,0,0,1,.18-.05.32.32,0,0,1,.32.32.37.37,0,0,1,0,.12l-1,3a.44.44,0,0,1-.16.21.43.43,0,0,1-.51,0,.47.47,0,0,1-.17-.22l-.76-2.36-.76,2.36a.48.48,0,0,1-.16.22.43.43,0,0,1-.51,0Z" transform="translate(0)"/><path class="cls-1" d="M158.81,111.67a.44.44,0,0,1-.16-.21l-1-3a.37.37,0,0,1,0-.12.31.31,0,0,1,.09-.23.31.31,0,0,1,.23-.09.33.33,0,0,1,.18.05.27.27,0,0,1,.11.14l.83,2.75.83-2.68a.36.36,0,0,1,.35-.26.35.35,0,0,1,.22.07.36.36,0,0,1,.13.19l.83,2.68.83-2.75a.27.27,0,0,1,.11-.14.33.33,0,0,1,.18-.05.32.32,0,0,1,.32.32.37.37,0,0,1,0,.12l-1,3a.44.44,0,0,1-.16.21.43.43,0,0,1-.51,0,.47.47,0,0,1-.17-.22l-.76-2.36-.76,2.36a.48.48,0,0,1-.16.22.43.43,0,0,1-.51,0Z" transform="translate(0)"/><path class="cls-1" d="M164.47,111.67a.44.44,0,0,1-.16-.21l-1-3a.4.4,0,0,1,0-.12.32.32,0,0,1,.32-.32.33.33,0,0,1,.18.05.26.26,0,0,1,.11.14l.84,2.75.83-2.68a.37.37,0,0,1,.7,0l.83,2.68.84-2.75a.26.26,0,0,1,.11-.14.33.33,0,0,1,.18-.05.32.32,0,0,1,.32.32.37.37,0,0,1,0,.12l-1,3a.44.44,0,0,1-.16.21.43.43,0,0,1-.51,0,.48.48,0,0,1-.16-.22l-.76-2.36-.76,2.36a.48.48,0,0,1-.16.22.43.43,0,0,1-.51,0Z" transform="translate(0)"/><path class="cls-1" d="M169.05,111.63a.38.38,0,0,1-.12-.28v0a.4.4,0,0,1,.4-.4h.07a.4.4,0,0,1,.4.4v0a.4.4,0,0,1-.4.4h-.07A.38.38,0,0,1,169.05,111.63Z" transform="translate(0)"/><path class="cls-1" d="M171.08,110.85v-2.21h-.51a.13.13,0,0,1-.1,0,.13.13,0,0,1,0-.1.15.15,0,0,1,.06-.12l1-.95a.18.18,0,0,1,.12-.06.13.13,0,0,1,.1,0,.14.14,0,0,1,0,.1v.57h.81a.27.27,0,0,1,.28.28.27.27,0,0,1-.08.2.26.26,0,0,1-.2.08h-.81v2.16c0,.19,0,.3.13.35a.66.66,0,0,0,.33.08,1,1,0,0,0,.29,0h.14a.25.25,0,0,1,.18.08.24.24,0,0,1,.08.18.27.27,0,0,1-.17.25,1.41,1.41,0,0,1-.59.13Q171.08,111.79,171.08,110.85Z" transform="translate(0)"/><path class="cls-1" d="M173.81,111.3a1.91,1.91,0,0,1-.49-1.4,2.32,2.32,0,0,1,.19-.94,1.57,1.57,0,0,1,.57-.69A1.63,1.63,0,0,1,175,108a1.66,1.66,0,0,1,.91.25,1.59,1.59,0,0,1,.58.66,2,2,0,0,1,.2.9.31.31,0,0,1-.33.32H174a1.18,1.18,0,0,0,.37.78,1.28,1.28,0,0,0,.88.28,2.14,2.14,0,0,0,.52-.06,2.2,2.2,0,0,0,.44-.16.3.3,0,0,1,.33,0,.26.26,0,0,1,.09.2.31.31,0,0,1-.19.26,2.57,2.57,0,0,1-.55.24,2.61,2.61,0,0,1-.7.08A1.82,1.82,0,0,1,173.81,111.3Zm2.27-1.7a1.16,1.16,0,0,0-.18-.59,1,1,0,0,0-.4-.35,1.09,1.09,0,0,0-1,0,1,1,0,0,0-.39.35,1.17,1.17,0,0,0-.18.59Z" transform="translate(0)"/><path class="cls-1" d="M177.68,111.67a.31.31,0,0,1-.09-.23V106.8a.32.32,0,0,1,.09-.23.31.31,0,0,1,.23-.1.32.32,0,0,1,.33.33v4.63a.31.31,0,0,1-.1.23.32.32,0,0,1-.23.09A.31.31,0,0,1,177.68,111.67Z" transform="translate(0)"/><path class="cls-1" d="M180,111.56a1.6,1.6,0,0,1-.64-.67,2.29,2.29,0,0,1,0-2,1.6,1.6,0,0,1,.64-.67,2.08,2.08,0,0,1,1.92,0,1.62,1.62,0,0,1,.64.67,2.25,2.25,0,0,1,0,2,1.62,1.62,0,0,1-.64.67,2.08,2.08,0,0,1-1.92,0Zm1.52-.49a1.09,1.09,0,0,0,.44-.43,1.44,1.44,0,0,0,.17-.74,1.42,1.42,0,0,0-.17-.74,1.07,1.07,0,0,0-.44-.42,1.27,1.27,0,0,0-1.13,0,1,1,0,0,0-.44.42,1.44,1.44,0,0,0-.17.74,1.46,1.46,0,0,0,.17.74,1.06,1.06,0,0,0,.44.43,1.24,1.24,0,0,0,1.13,0Z" transform="translate(0)"/><path class="cls-1" d="M183.58,111.47a.27.27,0,0,1-.12-.24.29.29,0,0,1,.08-.2.26.26,0,0,1,.2-.09l.13,0a2.91,2.91,0,0,0,.46.16,2.12,2.12,0,0,0,.51.06q.79,0,.79-.51a.27.27,0,0,0-.18-.25,3.78,3.78,0,0,0-.6-.19,5.53,5.53,0,0,1-.7-.21,1.22,1.22,0,0,1-.47-.33.82.82,0,0,1-.2-.58,1,1,0,0,1,.36-.81,1.52,1.52,0,0,1,1-.31,3,3,0,0,1,1,.18.27.27,0,0,1,.15.11.29.29,0,0,1,.05.17.28.28,0,0,1-.08.2.27.27,0,0,1-.2.09h-.09a2.76,2.76,0,0,0-.81-.13,1.11,1.11,0,0,0-.6.14.42.42,0,0,0-.22.36.33.33,0,0,0,.2.31,2.81,2.81,0,0,0,.62.19,5.82,5.82,0,0,1,.69.21,1.13,1.13,0,0,1,.45.32.88.88,0,0,1,.19.59.94.94,0,0,1-.36.76,1.55,1.55,0,0,1-1,.3A2.66,2.66,0,0,1,183.58,111.47Z" transform="translate(0)"/><path class="cls-1" d="M187.7,113.31a.31.31,0,0,1-.09-.22.32.32,0,0,1,0-.11l.46-1.19-1.34-3.27a.36.36,0,0,1,0-.14.32.32,0,0,1,.09-.23.32.32,0,0,1,.41,0,.32.32,0,0,1,.12.14l1.1,2.73,1.12-2.71a.31.31,0,0,1,.3-.21.31.31,0,0,1,.23.1.32.32,0,0,1,.09.23.33.33,0,0,1,0,.12l-1.95,4.68a.32.32,0,0,1-.3.22A.29.29,0,0,1,187.7,113.31Z" transform="translate(0)"/><path class="cls-1" d="M190.81,111.47a.27.27,0,0,1-.12-.24.29.29,0,0,1,.08-.2.26.26,0,0,1,.2-.09l.13,0a2.91,2.91,0,0,0,.46.16,2.12,2.12,0,0,0,.51.06q.79,0,.79-.51a.27.27,0,0,0-.18-.25,3.78,3.78,0,0,0-.6-.19,5.53,5.53,0,0,1-.7-.21,1.22,1.22,0,0,1-.47-.33.82.82,0,0,1-.2-.58,1,1,0,0,1,.36-.81,1.52,1.52,0,0,1,1-.31,3,3,0,0,1,1,.18.27.27,0,0,1,.15.11.29.29,0,0,1,.05.17.28.28,0,0,1-.08.2.27.27,0,0,1-.2.09H193a2.76,2.76,0,0,0-.81-.13,1.11,1.11,0,0,0-.6.14.42.42,0,0,0-.22.36.33.33,0,0,0,.2.31,2.81,2.81,0,0,0,.62.19,5.82,5.82,0,0,1,.69.21,1.13,1.13,0,0,1,.45.32.88.88,0,0,1,.19.59.94.94,0,0,1-.36.76,1.55,1.55,0,0,1-1,.3A2.66,2.66,0,0,1,190.81,111.47Z" transform="translate(0)"/><path class="cls-1" d="M194.41,111.63a.38.38,0,0,1-.12-.28v0a.4.4,0,0,1,.4-.4h.07a.4.4,0,0,1,.4.4v0a.4.4,0,0,1-.4.4h-.07A.38.38,0,0,1,194.41,111.63Z" transform="translate(0)"/><path class="cls-1" d="M196.79,111.56a1.6,1.6,0,0,1-.64-.67,2.29,2.29,0,0,1,0-2,1.6,1.6,0,0,1,.64-.67,2.08,2.08,0,0,1,1.92,0,1.62,1.62,0,0,1,.64.67,2.25,2.25,0,0,1,0,2,1.62,1.62,0,0,1-.64.67,2.08,2.08,0,0,1-1.92,0Zm1.52-.49a1.09,1.09,0,0,0,.44-.43,1.44,1.44,0,0,0,.17-.74,1.42,1.42,0,0,0-.17-.74,1.07,1.07,0,0,0-.44-.42,1.27,1.27,0,0,0-1.13,0,1,1,0,0,0-.44.42,1.44,1.44,0,0,0-.17.74,1.46,1.46,0,0,0,.17.74,1.06,1.06,0,0,0,.44.43,1.24,1.24,0,0,0,1.13,0Z" transform="translate(0)"/><path class="cls-1" d="M200.58,111.67a.31.31,0,0,1-.09-.23v-3.06a.32.32,0,0,1,.09-.23.31.31,0,0,1,.23-.1.33.33,0,0,1,.33.33v.31a1.41,1.41,0,0,1,1.12-.67h0a.3.3,0,0,1,.22.09.32.32,0,0,1,.09.23.29.29,0,0,1-.09.22.34.34,0,0,1-.24.08h0a1.23,1.23,0,0,0-.63.17,1.44,1.44,0,0,0-.48.46v2.17a.31.31,0,0,1-.1.23.32.32,0,0,1-.23.09A.31.31,0,0,1,200.58,111.67Z" transform="translate(0)"/><path class="cls-1" d="M204,113.33a2.71,2.71,0,0,1-.69-.26.27.27,0,0,1-.13-.25.29.29,0,0,1,.08-.2.26.26,0,0,1,.2-.09l.13,0a2.6,2.6,0,0,0,1.18.27q1.09,0,1.09-1.16v-.48a1.61,1.61,0,0,1-1.22.54,1.72,1.72,0,0,1-.82-.21,1.7,1.7,0,0,1-.65-.63,2.14,2.14,0,0,1,0-2,1.72,1.72,0,0,1,1.47-.84,1.61,1.61,0,0,1,1.22.54v-.18a.32.32,0,0,1,.09-.23.31.31,0,0,1,.23-.1.33.33,0,0,1,.33.33v3.19a2,2,0,0,1-.44,1.38,1.58,1.58,0,0,1-1.24.49A3.39,3.39,0,0,1,204,113.33Zm1.37-2.34a2.11,2.11,0,0,0,.49-.39v-1.47a2.14,2.14,0,0,0-.49-.39,1.32,1.32,0,0,0-1.47.18,1.47,1.47,0,0,0,0,1.88,1.21,1.21,0,0,0,.87.32A1.19,1.19,0,0,0,205.35,111Z" transform="translate(0)"/><path class="cls-1" d="M152.54,123.82v-2.21H152a.14.14,0,0,1-.14-.14.15.15,0,0,1,.06-.12l1-.95a.18.18,0,0,1,.12-.06.13.13,0,0,1,.1,0,.14.14,0,0,1,0,.1V121H154a.27.27,0,0,1,.28.28.27.27,0,0,1-.08.2.26.26,0,0,1-.2.08h-.81v2.16c0,.19,0,.3.13.35a.66.66,0,0,0,.33.08,1,1,0,0,0,.29,0h.14a.25.25,0,0,1,.18.08.24.24,0,0,1,.08.18.27.27,0,0,1-.17.25,1.41,1.41,0,0,1-.59.13Q152.54,124.76,152.54,123.82Z" transform="translate(0)"/><path class="cls-1" d="M155.28,124.27a1.91,1.91,0,0,1-.49-1.4,2.32,2.32,0,0,1,.19-.94,1.58,1.58,0,0,1,.57-.69,1.82,1.82,0,0,1,1.86,0,1.59,1.59,0,0,1,.58.66,2,2,0,0,1,.2.9.31.31,0,0,1-.33.32h-2.42a1.18,1.18,0,0,0,.37.78,1.28,1.28,0,0,0,.88.28,2.14,2.14,0,0,0,.52-.06,2.2,2.2,0,0,0,.44-.16.3.3,0,0,1,.33,0,.26.26,0,0,1,.09.2.31.31,0,0,1-.19.26,2.57,2.57,0,0,1-.55.24,2.61,2.61,0,0,1-.7.08A1.82,1.82,0,0,1,155.28,124.27Zm2.27-1.7a1.16,1.16,0,0,0-.18-.59,1,1,0,0,0-.4-.35,1.08,1.08,0,0,0-1,0,1,1,0,0,0-.39.35,1.17,1.17,0,0,0-.18.59Z" transform="translate(0)"/><path class="cls-1" d="M159.14,124.63a.31.31,0,0,1-.09-.23v-4.63a.32.32,0,0,1,.09-.23.31.31,0,0,1,.23-.1.32.32,0,0,1,.33.33v4.63a.31.31,0,0,1-.1.23.32.32,0,0,1-.23.09A.31.31,0,0,1,159.14,124.63Z" transform="translate(0)"/><path class="cls-1" d="M161.47,124.53a1.6,1.6,0,0,1-.64-.67,2.29,2.29,0,0,1,0-2,1.6,1.6,0,0,1,.64-.67,2.07,2.07,0,0,1,1.92,0,1.62,1.62,0,0,1,.64.67,2.25,2.25,0,0,1,0,2,1.62,1.62,0,0,1-.64.67,2.08,2.08,0,0,1-1.92,0ZM163,124a1.09,1.09,0,0,0,.44-.43,1.44,1.44,0,0,0,.17-.74,1.42,1.42,0,0,0-.17-.74,1.08,1.08,0,0,0-.44-.42,1.27,1.27,0,0,0-1.13,0,1.05,1.05,0,0,0-.44.42,1.44,1.44,0,0,0-.17.74,1.46,1.46,0,0,0,.17.74,1.06,1.06,0,0,0,.44.43,1.24,1.24,0,0,0,1.13,0Z" transform="translate(0)"/><path class="cls-1" d="M165,124.44a.27.27,0,0,1-.12-.24.29.29,0,0,1,.08-.2.26.26,0,0,1,.2-.09l.13,0a2.91,2.91,0,0,0,.46.16,2.12,2.12,0,0,0,.51.06q.79,0,.79-.51a.27.27,0,0,0-.18-.25,3.78,3.78,0,0,0-.6-.19,5.53,5.53,0,0,1-.7-.21,1.22,1.22,0,0,1-.47-.33.82.82,0,0,1-.2-.58,1,1,0,0,1,.36-.81,1.52,1.52,0,0,1,1-.31,3,3,0,0,1,1,.18.27.27,0,0,1,.15.11.28.28,0,0,1,0,.36.27.27,0,0,1-.2.08h-.09a2.73,2.73,0,0,0-.81-.13,1.11,1.11,0,0,0-.6.14.41.41,0,0,0-.22.36.33.33,0,0,0,.2.31,2.87,2.87,0,0,0,.62.19,5.82,5.82,0,0,1,.69.21,1.13,1.13,0,0,1,.45.32.88.88,0,0,1,.19.59.94.94,0,0,1-.36.76,1.55,1.55,0,0,1-1,.3A2.66,2.66,0,0,1,165,124.44Z" transform="translate(0)"/><path class="cls-1" d="M169.16,126.28a.31.31,0,0,1-.09-.22.32.32,0,0,1,0-.11l.46-1.19-1.34-3.27a.36.36,0,0,1,0-.14.32.32,0,0,1,.09-.23.31.31,0,0,1,.23-.1.31.31,0,0,1,.18.06.32.32,0,0,1,.12.14l1.1,2.73,1.12-2.71a.31.31,0,0,1,.3-.21.3.3,0,0,1,.23.1.32.32,0,0,1,.09.23.33.33,0,0,1,0,.12l-1.95,4.68a.32.32,0,0,1-.3.22A.29.29,0,0,1,169.16,126.28Z" transform="translate(0)"/><path class="cls-1" d="M172.28,124.44a.27.27,0,0,1-.12-.24.29.29,0,0,1,.08-.2.26.26,0,0,1,.2-.09l.13,0a2.91,2.91,0,0,0,.46.16,2.12,2.12,0,0,0,.51.06q.79,0,.79-.51a.27.27,0,0,0-.18-.25,3.78,3.78,0,0,0-.6-.19,5.53,5.53,0,0,1-.7-.21,1.22,1.22,0,0,1-.47-.33.82.82,0,0,1-.2-.58,1,1,0,0,1,.36-.81,1.52,1.52,0,0,1,1-.31,3,3,0,0,1,1,.18.27.27,0,0,1,.15.11.28.28,0,0,1,0,.36.27.27,0,0,1-.2.08h-.09a2.73,2.73,0,0,0-.81-.13,1.11,1.11,0,0,0-.6.14.41.41,0,0,0-.22.36.33.33,0,0,0,.2.31,2.87,2.87,0,0,0,.62.19,5.82,5.82,0,0,1,.69.21,1.13,1.13,0,0,1,.45.32.88.88,0,0,1,.19.59.94.94,0,0,1-.36.76,1.55,1.55,0,0,1-1,.3A2.66,2.66,0,0,1,172.28,124.44Z" transform="translate(0)"/><path class="cls-1" d="M176,123.82v-2.21h-.51a.14.14,0,0,1-.14-.14.15.15,0,0,1,.06-.12l1-.95a.18.18,0,0,1,.12-.06.13.13,0,0,1,.1,0,.14.14,0,0,1,0,.1V121h.81a.27.27,0,0,1,.28.28.27.27,0,0,1-.08.2.26.26,0,0,1-.2.08h-.81v2.16c0,.19,0,.3.13.35a.66.66,0,0,0,.33.08,1,1,0,0,0,.29,0h.14a.25.25,0,0,1,.18.08.24.24,0,0,1,.08.18.27.27,0,0,1-.17.25,1.41,1.41,0,0,1-.59.13Q176,124.76,176,123.82Z" transform="translate(0)"/><path class="cls-1" d="M178.74,124.27a1.91,1.91,0,0,1-.49-1.4,2.32,2.32,0,0,1,.19-.94,1.58,1.58,0,0,1,.57-.69,1.82,1.82,0,0,1,1.86,0,1.59,1.59,0,0,1,.58.66,2,2,0,0,1,.2.9.31.31,0,0,1-.33.32h-2.42a1.18,1.18,0,0,0,.37.78,1.28,1.28,0,0,0,.88.28,2.14,2.14,0,0,0,.52-.06,2.2,2.2,0,0,0,.44-.16.3.3,0,0,1,.33,0,.26.26,0,0,1,.09.2.31.31,0,0,1-.19.26,2.57,2.57,0,0,1-.55.24,2.61,2.61,0,0,1-.7.08A1.82,1.82,0,0,1,178.74,124.27Zm2.27-1.7a1.16,1.16,0,0,0-.18-.59,1,1,0,0,0-.4-.35,1.08,1.08,0,0,0-1,0,1,1,0,0,0-.39.35,1.17,1.17,0,0,0-.18.59Z" transform="translate(0)"/><path class="cls-1" d="M182.86,124.63a1,1,0,0,1-.42-.37,1,1,0,0,1-.16-.57,1,1,0,0,1,.42-.84,2,2,0,0,1,1.22-.31h.86v-.06a.87.87,0,0,0-.23-.68,1.07,1.07,0,0,0-.72-.21,2.45,2.45,0,0,0-.48,0,3.93,3.93,0,0,0-.47.13h-.09a.26.26,0,0,1-.19-.08.26.26,0,0,1-.08-.19.28.28,0,0,1,.19-.27,3.15,3.15,0,0,1,1.24-.26,1.61,1.61,0,0,1,.83.2,1.26,1.26,0,0,1,.5.52,1.5,1.5,0,0,1,.16.69v2a.31.31,0,0,1-.1.23.32.32,0,0,1-.23.09.32.32,0,0,1-.32-.32v-.19a1.79,1.79,0,0,1-1.34.54A1.34,1.34,0,0,1,182.86,124.63Zm1.43-.6a1.68,1.68,0,0,0,.49-.38v-.6H184q-1.08,0-1.08.56a.53.53,0,0,0,.17.41.86.86,0,0,0,.58.16A1.29,1.29,0,0,0,184.29,124Z" transform="translate(0)"/><path class="cls-1" d="M186.62,124.63a.31.31,0,0,1-.09-.23v-3.06a.32.32,0,0,1,.09-.23.3.3,0,0,1,.23-.1.33.33,0,0,1,.33.33v.29a1.79,1.79,0,0,1,.48-.47,1.31,1.31,0,0,1,.73-.19,1.11,1.11,0,0,1,.69.21,1.2,1.2,0,0,1,.41.52,1.44,1.44,0,0,1,1.31-.74,1.08,1.08,0,0,1,.67.2,1.2,1.2,0,0,1,.4.51,1.72,1.72,0,0,1,.13.66v2.06a.31.31,0,0,1-.1.23.32.32,0,0,1-.23.09.32.32,0,0,1-.32-.32v-1.93a1.14,1.14,0,0,0-.16-.68.66.66,0,0,0-.56-.22.94.94,0,0,0-.6.19,1.85,1.85,0,0,0-.42.5v2.14a.31.31,0,0,1-.1.23.32.32,0,0,1-.23.09.32.32,0,0,1-.32-.32v-1.93a1.13,1.13,0,0,0-.17-.68.66.66,0,0,0-.56-.22.94.94,0,0,0-.6.19,1.85,1.85,0,0,0-.42.5v2.14a.31.31,0,0,1-.1.23.32.32,0,0,1-.23.09A.31.31,0,0,1,186.62,124.63Z" transform="translate(0)"/><path class="cls-1" d="M194.06,124.95a2.35,2.35,0,0,1-.88-.91,2.5,2.5,0,0,1-.31-1.22,2.91,2.91,0,0,1,.41-1.51,3.16,3.16,0,0,1,1.11-1.12,2.87,2.87,0,0,1,1.5-.42,3,3,0,0,1,1.36.32,2.54,2.54,0,0,1,1,.88,2.27,2.27,0,0,1,.37,1.27,2.57,2.57,0,0,1-.14.85,1.5,1.5,0,0,1-.44.66,1.11,1.11,0,0,1-.75.26.88.88,0,0,1-.56-.16.63.63,0,0,1-.24-.37,1.38,1.38,0,0,1-.53.4,1.63,1.63,0,0,1-.65.13,1.15,1.15,0,0,1-.89-.35,1.29,1.29,0,0,1-.32-.91,1.75,1.75,0,0,1,.24-.93,1.63,1.63,0,0,1,.63-.6,1.73,1.73,0,0,1,.82-.21,1.27,1.27,0,0,1,.91.36l0-.12a.26.26,0,0,1,.09-.16A.26.26,0,0,1,197,121a.25.25,0,0,1,.18.08.26.26,0,0,1,.08.19v.08l-.24,1.36a2.55,2.55,0,0,0,0,.46.58.58,0,0,0,.09.33.3.3,0,0,0,.27.13.76.76,0,0,0,.68-.39,2,2,0,0,0,.24-1,1.91,1.91,0,0,0-.34-1.13,2.12,2.12,0,0,0-.87-.72,2.7,2.7,0,0,0-1.12-.24,2.53,2.53,0,0,0-1.32.36,2.77,2.77,0,0,0-1,1,2.54,2.54,0,0,0-.36,1.32,2.14,2.14,0,0,0,.25,1,2,2,0,0,0,.74.78,2.13,2.13,0,0,0,1.15.3,3.08,3.08,0,0,0,.76-.08,6.44,6.44,0,0,0,.74-.25h.08a.17.17,0,0,1,.13,0,.16.16,0,0,1,0,.12.19.19,0,0,1,0,.1.17.17,0,0,1-.07.07,3.63,3.63,0,0,1-1.65.38A2.53,2.53,0,0,1,194.06,124.95Zm2.45-2.42.11-.66a1.07,1.07,0,0,0-.81-.33,1.26,1.26,0,0,0-.57.13,1.08,1.08,0,0,0-.43.4,1.14,1.14,0,0,0-.17.63.81.81,0,0,0,.23.63.84.84,0,0,0,.59.21Q196.34,123.53,196.51,122.53Z" transform="translate(0)"/><path class="cls-1" d="M200.36,126.3a2.69,2.69,0,0,1-.69-.26.27.27,0,0,1-.13-.25.29.29,0,0,1,.08-.2.27.27,0,0,1,.2-.09l.13,0a2.6,2.6,0,0,0,1.18.27q1.09,0,1.09-1.16v-.48a1.61,1.61,0,0,1-1.22.54,1.72,1.72,0,0,1-.82-.21,1.69,1.69,0,0,1-.65-.63,2.14,2.14,0,0,1,0-2,1.7,1.7,0,0,1,.65-.63A1.72,1.72,0,0,1,201,121a1.61,1.61,0,0,1,1.22.54v-.18a.32.32,0,0,1,.09-.23.3.3,0,0,1,.23-.1.33.33,0,0,1,.33.33v3.19a2,2,0,0,1-.44,1.38,1.58,1.58,0,0,1-1.24.49A3.38,3.38,0,0,1,200.36,126.3Zm1.37-2.34a2.13,2.13,0,0,0,.49-.39V122.1a2.16,2.16,0,0,0-.49-.39,1.33,1.33,0,0,0-1.47.18,1.47,1.47,0,0,0,0,1.88,1.22,1.22,0,0,0,.88.32A1.2,1.2,0,0,0,201.73,124Z" transform="translate(0)"/><path class="cls-1" d="M204.09,124.63a.31.31,0,0,1-.09-.23v-3.06a.32.32,0,0,1,.09-.23.3.3,0,0,1,.23-.1.33.33,0,0,1,.33.33v.29a1.79,1.79,0,0,1,.48-.47,1.31,1.31,0,0,1,.73-.19,1.11,1.11,0,0,1,.69.21,1.2,1.2,0,0,1,.41.52,1.44,1.44,0,0,1,1.31-.74,1.08,1.08,0,0,1,.67.2,1.2,1.2,0,0,1,.4.51,1.72,1.72,0,0,1,.13.66v2.06a.31.31,0,0,1-.1.23.32.32,0,0,1-.23.09.32.32,0,0,1-.32-.32v-1.93a1.14,1.14,0,0,0-.16-.68.66.66,0,0,0-.56-.22.94.94,0,0,0-.6.19,1.85,1.85,0,0,0-.42.5v2.14a.31.31,0,0,1-.1.23.32.32,0,0,1-.23.09.32.32,0,0,1-.32-.32v-1.93a1.13,1.13,0,0,0-.17-.68.66.66,0,0,0-.56-.22.94.94,0,0,0-.6.19,1.85,1.85,0,0,0-.42.5v2.14a.31.31,0,0,1-.1.23.32.32,0,0,1-.23.09A.31.31,0,0,1,204.09,124.63Z" transform="translate(0)"/><path class="cls-1" d="M210.9,124.63a1,1,0,0,1-.42-.37,1,1,0,0,1-.16-.57,1,1,0,0,1,.42-.84,2,2,0,0,1,1.22-.31h.86v-.06a.87.87,0,0,0-.23-.68,1.07,1.07,0,0,0-.72-.21,2.45,2.45,0,0,0-.48,0,3.93,3.93,0,0,0-.47.13h-.09a.26.26,0,0,1-.19-.08.26.26,0,0,1-.08-.19.28.28,0,0,1,.19-.27A3.15,3.15,0,0,1,212,121a1.61,1.61,0,0,1,.83.2,1.26,1.26,0,0,1,.5.52,1.5,1.5,0,0,1,.16.69v2a.31.31,0,0,1-.1.23.32.32,0,0,1-.23.09.32.32,0,0,1-.32-.32v-.19a1.79,1.79,0,0,1-1.34.54A1.34,1.34,0,0,1,210.9,124.63Zm1.43-.6a1.68,1.68,0,0,0,.49-.38v-.6H212q-1.08,0-1.08.56a.53.53,0,0,0,.17.41.86.86,0,0,0,.58.16A1.29,1.29,0,0,0,212.33,124Z" transform="translate(0)"/><path class="cls-1" d="M214.62,120.2a.35.35,0,0,1-.11-.26v0a.37.37,0,0,1,.36-.36h0a.37.37,0,0,1,.36.36v0a.37.37,0,0,1-.36.36h0A.35.35,0,0,1,214.62,120.2Zm0,4.43a.31.31,0,0,1-.09-.23v-3.06a.32.32,0,0,1,.09-.23.3.3,0,0,1,.23-.1.32.32,0,0,1,.33.33v3.06a.31.31,0,0,1-.1.23.32.32,0,0,1-.23.09A.31.31,0,0,1,214.66,124.63Z" transform="translate(0)"/><path class="cls-1" d="M216.44,124.63a.31.31,0,0,1-.09-.23v-4.63a.32.32,0,0,1,.09-.23.3.3,0,0,1,.23-.1.32.32,0,0,1,.33.33v4.63a.31.31,0,0,1-.1.23.32.32,0,0,1-.23.09A.31.31,0,0,1,216.44,124.63Z" transform="translate(0)"/><path class="cls-1" d="M218.17,124.59a.38.38,0,0,1-.12-.28v0a.4.4,0,0,1,.4-.4h.07a.4.4,0,0,1,.4.4v0a.4.4,0,0,1-.4.4h-.07A.38.38,0,0,1,218.17,124.59Z" transform="translate(0)"/><path class="cls-1" d="M220.64,124.53a1.76,1.76,0,0,1-.7-.66,2.07,2.07,0,0,1,0-2,1.75,1.75,0,0,1,.7-.66,2,2,0,0,1,.95-.23,2,2,0,0,1,.65.1,2.52,2.52,0,0,1,.51.25.28.28,0,0,1,.06.45.25.25,0,0,1-.19.09.33.33,0,0,1-.16,0,2.63,2.63,0,0,0-.4-.17,1.38,1.38,0,0,0-.42-.05,1.29,1.29,0,0,0-1,.35,1.42,1.42,0,0,0,0,1.86,1.3,1.3,0,0,0,1,.35,1.41,1.41,0,0,0,.42-.05,2.73,2.73,0,0,0,.4-.17.32.32,0,0,1,.16,0,.25.25,0,0,1,.19.09.28.28,0,0,1-.06.45,2.42,2.42,0,0,1-.51.25,2,2,0,0,1-.65.1A2,2,0,0,1,220.64,124.53Z" transform="translate(0)"/><path class="cls-1" d="M224.33,124.53a1.6,1.6,0,0,1-.64-.67,2.29,2.29,0,0,1,0-2,1.6,1.6,0,0,1,.64-.67,2.07,2.07,0,0,1,1.92,0,1.62,1.62,0,0,1,.64.67,2.25,2.25,0,0,1,0,2,1.62,1.62,0,0,1-.64.67,2.08,2.08,0,0,1-1.92,0Zm1.52-.49a1.09,1.09,0,0,0,.44-.43,1.44,1.44,0,0,0,.17-.74,1.42,1.42,0,0,0-.17-.74,1.08,1.08,0,0,0-.44-.42,1.25,1.25,0,0,0-.56-.13,1.27,1.27,0,0,0-.57.13,1.06,1.06,0,0,0-.44.42,1.44,1.44,0,0,0-.17.74,1.46,1.46,0,0,0,.17.74,1.07,1.07,0,0,0,.44.43,1.24,1.24,0,0,0,.57.14A1.22,1.22,0,0,0,225.85,124Z" transform="translate(0)"/><path class="cls-1" d="M228.12,124.63a.31.31,0,0,1-.09-.23v-3.06a.32.32,0,0,1,.09-.23.3.3,0,0,1,.23-.1.33.33,0,0,1,.33.33v.29a1.78,1.78,0,0,1,.48-.47,1.32,1.32,0,0,1,.73-.19,1.11,1.11,0,0,1,.69.21,1.2,1.2,0,0,1,.41.52,1.44,1.44,0,0,1,1.31-.74,1.09,1.09,0,0,1,.67.2,1.2,1.2,0,0,1,.4.51,1.72,1.72,0,0,1,.13.66v2.06a.31.31,0,0,1-.1.23.32.32,0,0,1-.23.09.32.32,0,0,1-.32-.32v-1.93a1.14,1.14,0,0,0-.16-.68.67.67,0,0,0-.56-.22.94.94,0,0,0-.6.19,1.81,1.81,0,0,0-.42.5v2.14a.31.31,0,0,1-.1.23.32.32,0,0,1-.23.09.32.32,0,0,1-.32-.32v-1.93a1.14,1.14,0,0,0-.16-.68.66.66,0,0,0-.56-.22.94.94,0,0,0-.6.19,1.85,1.85,0,0,0-.42.5v2.14a.31.31,0,0,1-.1.23.32.32,0,0,1-.23.09A.31.31,0,0,1,228.12,124.63Z" transform="translate(0)"/><path class="cls-1" d="M153.31,138.72a2.35,2.35,0,0,1-.88-.91,2.49,2.49,0,0,1-.31-1.22,2.91,2.91,0,0,1,.42-1.51,3.15,3.15,0,0,1,1.11-1.12,2.87,2.87,0,0,1,1.5-.42,3,3,0,0,1,1.36.32,2.53,2.53,0,0,1,1,.88,2.27,2.27,0,0,1,.37,1.27,2.57,2.57,0,0,1-.14.85,1.5,1.5,0,0,1-.44.66,1.1,1.1,0,0,1-.75.26.88.88,0,0,1-.56-.16.62.62,0,0,1-.24-.37,1.38,1.38,0,0,1-.53.4,1.63,1.63,0,0,1-.65.13,1.15,1.15,0,0,1-.89-.35,1.29,1.29,0,0,1-.32-.91,1.75,1.75,0,0,1,.24-.93,1.62,1.62,0,0,1,.63-.6,1.74,1.74,0,0,1,.83-.21,1.27,1.27,0,0,1,.91.36l0-.12a.26.26,0,0,1,.09-.16.26.26,0,0,1,.17-.06.25.25,0,0,1,.18.08.25.25,0,0,1,.08.19v.08l-.24,1.36a2.48,2.48,0,0,0-.05.46.58.58,0,0,0,.09.33.3.3,0,0,0,.27.13.76.76,0,0,0,.68-.39,2,2,0,0,0,.24-1,1.91,1.91,0,0,0-.34-1.13,2.11,2.11,0,0,0-.87-.72,2.71,2.71,0,0,0-1.12-.24,2.53,2.53,0,0,0-1.32.36,2.77,2.77,0,0,0-1,1,2.54,2.54,0,0,0-.36,1.32,2.14,2.14,0,0,0,.25,1,2,2,0,0,0,.74.78,2.13,2.13,0,0,0,1.15.3,3.09,3.09,0,0,0,.76-.08,6.44,6.44,0,0,0,.74-.25h.08a.18.18,0,0,1,.13,0,.16.16,0,0,1,0,.12.19.19,0,0,1,0,.1.17.17,0,0,1-.07.07,3.62,3.62,0,0,1-1.65.38A2.53,2.53,0,0,1,153.31,138.72Zm2.45-2.42.11-.66a1.07,1.07,0,0,0-.81-.33,1.26,1.26,0,0,0-.58.13,1.09,1.09,0,0,0-.43.4,1.15,1.15,0,0,0-.16.63.81.81,0,0,0,.23.63.84.84,0,0,0,.59.21Q155.59,137.3,155.76,136.3Z" transform="translate(0)"/><path class="cls-1" d="M159,137.59v-2.21h-.51a.14.14,0,0,1-.14-.14.15.15,0,0,1,.06-.12l1-.95a.18.18,0,0,1,.12-.06.13.13,0,0,1,.1,0,.14.14,0,0,1,0,.1v.57h.81a.27.27,0,0,1,.28.28.27.27,0,0,1-.08.2.26.26,0,0,1-.2.08h-.81v2.16c0,.19,0,.3.13.35a.66.66,0,0,0,.33.08,1,1,0,0,0,.29,0h.14a.25.25,0,0,1,.18.08.24.24,0,0,1,.08.18.27.27,0,0,1-.17.25,1.41,1.41,0,0,1-.59.13Q159,138.53,159,137.59Z" transform="translate(0)"/><path class="cls-1" d="M161.69,138a1.9,1.9,0,0,1-.49-1.4,2.32,2.32,0,0,1,.19-.94A1.59,1.59,0,0,1,162,135a1.82,1.82,0,0,1,1.86,0,1.6,1.6,0,0,1,.59.66,2,2,0,0,1,.2.9.31.31,0,0,1-.33.32h-2.42a1.17,1.17,0,0,0,.37.78,1.28,1.28,0,0,0,.88.28,2.15,2.15,0,0,0,.53-.06,2.19,2.19,0,0,0,.44-.16.29.29,0,0,1,.13,0,.29.29,0,0,1,.2.08.26.26,0,0,1,.09.2.31.31,0,0,1-.19.26,2.57,2.57,0,0,1-.55.24,2.6,2.6,0,0,1-.7.08A1.82,1.82,0,0,1,161.69,138Zm2.27-1.7a1.15,1.15,0,0,0-.18-.59,1,1,0,0,0-.4-.35,1.08,1.08,0,0,0-1,0,1,1,0,0,0-.39.35,1.15,1.15,0,0,0-.18.59Z" transform="translate(0)"/><path class="cls-1" d="M165.55,138.41a.31.31,0,0,1-.09-.23v-4.63a.32.32,0,0,1,.09-.23.3.3,0,0,1,.23-.1.32.32,0,0,1,.33.33v4.63a.31.31,0,0,1-.1.23.32.32,0,0,1-.23.09A.31.31,0,0,1,165.55,138.41Z" transform="translate(0)"/><path class="cls-1" d="M167.88,138.3a1.6,1.6,0,0,1-.64-.67,2.29,2.29,0,0,1,0-2,1.6,1.6,0,0,1,.64-.67,2.07,2.07,0,0,1,1.92,0,1.62,1.62,0,0,1,.64.67,2.25,2.25,0,0,1,0,2,1.62,1.62,0,0,1-.64.67,2.08,2.08,0,0,1-1.92,0Zm1.52-.49a1.09,1.09,0,0,0,.44-.43,1.44,1.44,0,0,0,.17-.74,1.42,1.42,0,0,0-.17-.74,1.08,1.08,0,0,0-.44-.42,1.27,1.27,0,0,0-1.13,0,1.05,1.05,0,0,0-.44.42,1.44,1.44,0,0,0-.17.74,1.46,1.46,0,0,0,.17.74,1.06,1.06,0,0,0,.44.43,1.24,1.24,0,0,0,1.13,0Z" transform="translate(0)"/><path class="cls-1" d="M171.46,138.21a.27.27,0,0,1-.12-.24.29.29,0,0,1,.08-.2.26.26,0,0,1,.2-.09l.13,0a2.91,2.91,0,0,0,.46.16,2.12,2.12,0,0,0,.51.06q.79,0,.79-.51a.27.27,0,0,0-.18-.25,3.78,3.78,0,0,0-.6-.19,5.53,5.53,0,0,1-.7-.21,1.22,1.22,0,0,1-.47-.33.82.82,0,0,1-.2-.58,1,1,0,0,1,.36-.81,1.52,1.52,0,0,1,1-.31,3,3,0,0,1,1,.18.27.27,0,0,1,.15.11.28.28,0,0,1,0,.36.27.27,0,0,1-.2.08h-.09a2.73,2.73,0,0,0-.81-.13,1.11,1.11,0,0,0-.6.14.41.41,0,0,0-.22.36.33.33,0,0,0,.2.31,2.87,2.87,0,0,0,.62.19,5.82,5.82,0,0,1,.69.21,1.13,1.13,0,0,1,.45.32.88.88,0,0,1,.19.59.94.94,0,0,1-.36.76,1.55,1.55,0,0,1-1,.3A2.66,2.66,0,0,1,171.46,138.21Z" transform="translate(0)"/><path class="cls-1" d="M175.57,140a.31.31,0,0,1-.09-.22.32.32,0,0,1,0-.11l.46-1.19-1.34-3.27a.36.36,0,0,1,0-.14.32.32,0,0,1,.09-.23.31.31,0,0,1,.23-.1.31.31,0,0,1,.18.06.32.32,0,0,1,.12.14l1.1,2.73,1.12-2.71a.31.31,0,0,1,.3-.21.3.3,0,0,1,.23.1.32.32,0,0,1,.09.23.33.33,0,0,1,0,.12l-1.95,4.68a.32.32,0,0,1-.3.22A.29.29,0,0,1,175.57,140Z" transform="translate(0)"/><path class="cls-1" d="M178.69,138.21a.27.27,0,0,1-.12-.24.29.29,0,0,1,.08-.2.26.26,0,0,1,.2-.09l.13,0a2.91,2.91,0,0,0,.46.16,2.12,2.12,0,0,0,.51.06q.79,0,.79-.51a.27.27,0,0,0-.18-.25,3.78,3.78,0,0,0-.6-.19,5.53,5.53,0,0,1-.7-.21,1.22,1.22,0,0,1-.47-.33.82.82,0,0,1-.2-.58,1,1,0,0,1,.36-.81,1.52,1.52,0,0,1,1-.31,3,3,0,0,1,1,.18.27.27,0,0,1,.15.11.28.28,0,0,1,0,.36.27.27,0,0,1-.2.08h-.09a2.73,2.73,0,0,0-.81-.13,1.11,1.11,0,0,0-.6.14.41.41,0,0,0-.22.36.33.33,0,0,0,.2.31,2.87,2.87,0,0,0,.62.19,5.82,5.82,0,0,1,.69.21,1.13,1.13,0,0,1,.45.32.88.88,0,0,1,.19.59.94.94,0,0,1-.36.76,1.55,1.55,0,0,1-1,.3A2.66,2.66,0,0,1,178.69,138.21Z" transform="translate(0)"/><g id="Page-1"><g id="Dribbble-Light-Preview"><g id="icons"><path id="twitter-_154_" data-name="twitter-[#154]" class="cls-14" d="M142.7,139a3.64,3.64,0,0,0,3.7-3.64c0-.06,0-.11,0-.17a2.62,2.62,0,0,0,.65-.66,2.62,2.62,0,0,1-.75.2,1.29,1.29,0,0,0,.57-.71,2.63,2.63,0,0,1-.82.31,1.31,1.31,0,0,0-1.84-.06,1.27,1.27,0,0,0-.38,1.22,3.71,3.71,0,0,1-2.68-1.34,1.27,1.27,0,0,0,.4,1.71,1.3,1.3,0,0,1-.59-.16v0a1.28,1.28,0,0,0,1,1.25,1.31,1.31,0,0,1-.59,0,1.3,1.3,0,0,0,1.21.89,2.63,2.63,0,0,1-1.61.55l-.31,0a3.72,3.72,0,0,0,2,.57" transform="translate(0)"/></g></g></g><g id="Page-1-2" data-name="Page-1"><g id="Dribbble-Light-Preview-2" data-name="Dribbble-Light-Preview"><g id="icons-2" data-name="icons"><path id="email-_1572_" data-name="email-[#1572]" class="cls-14" d="M143.88,124.26l-3.17-2.79v3.59H147v-3.59Zm0-.84-3.17-2.8v-.31H147v.31Z" transform="translate(0)"/></g></g></g><path id="_Tracé_transparent_" data-name="&lt;Tracé transparent&gt;" class="cls-14" d="M143.88,106.52a3.19,3.19,0,1,0,3.19,3.19A3.19,3.19,0,0,0,143.88,106.52Zm.26,5.81h0v-1.51c.36,0,.69,0,1,0A4,4,0,0,1,144.13,112.34Zm-.51,0a4,4,0,0,1-.94-1.53c.29,0,.62,0,1,0v1.51Zm-2.38-2.62a3.14,3.14,0,0,1,0-.51c.15,0,.44-.07.85-.11a3.69,3.69,0,0,0-.06.63,4.39,4.39,0,0,0,0,.62c-.4,0-.7-.08-.85-.11A4.38,4.38,0,0,1,141.24,109.71Zm1.27,0a3.38,3.38,0,0,1,.07-.67c.32,0,.68,0,1.09,0v1.42c-.4,0-.77,0-1.1,0A3.87,3.87,0,0,1,142.51,109.71Zm1.62-2.62a4.23,4.23,0,0,1,.94,1.53c-.29,0-.62,0-1,0v-1.51Zm-.46,0v1.51c-.36,0-.69,0-1,0a4.24,4.24,0,0,1,.93-1.53Zm.42,3.34V109l1.09,0a3.4,3.4,0,0,1,0,1.33Zm1.52-1.33c.41,0,.7.08.85.11a2.53,2.53,0,0,1,.06.51,3.14,3.14,0,0,1,0,.51c-.15,0-.44.07-.85.11a3.7,3.7,0,0,0,0-.63A3.59,3.59,0,0,0,145.61,109.09Zm.73-.33-.83-.1a4.56,4.56,0,0,0-.7-1.42A2.64,2.64,0,0,1,146.33,108.75Zm-3.39-1.51a4.3,4.3,0,0,0-.7,1.41c-.35,0-.62.07-.83.1A2.67,2.67,0,0,1,142.95,107.24Zm-1.53,3.43.82.1a4.3,4.3,0,0,0,.69,1.41A2.67,2.67,0,0,1,141.42,110.67Zm3.4,1.51a4.25,4.25,0,0,0,.69-1.4c.35,0,.62-.07.82-.1A2.68,2.68,0,0,1,144.82,112.18Z" transform="translate(0)"/><path class="cls-1" d="M20.56,125.5a.42.42,0,0,1-.18-.15.39.39,0,0,1,0-.5.35.35,0,0,1,.27-.12.43.43,0,0,1,.18,0,4.42,4.42,0,0,0,1.82.38q1.62,0,1.62-1.06a.59.59,0,0,0-.21-.46,1.5,1.5,0,0,0-.51-.29q-.3-.11-.87-.25a11.22,11.22,0,0,1-1.21-.37,2.1,2.1,0,0,1-.79-.54,1.36,1.36,0,0,1-.33-1,1.72,1.72,0,0,1,.28-1,1.9,1.9,0,0,1,.82-.68,3,3,0,0,1,1.3-.25,5.25,5.25,0,0,1,1.84.3.36.36,0,0,1,.26.37.4.4,0,0,1-.1.27.33.33,0,0,1-.27.12l-.15,0a4.52,4.52,0,0,0-1.49-.25,2.27,2.27,0,0,0-1.19.28.86.86,0,0,0-.46.78.71.71,0,0,0,.22.54A1.49,1.49,0,0,0,22,122a8.67,8.67,0,0,0,.89.25,9.11,9.11,0,0,1,1.18.35,1.93,1.93,0,0,1,.77.54,1.47,1.47,0,0,1,.32,1,1.55,1.55,0,0,1-.3.93,1.93,1.93,0,0,1-.83.64,3.1,3.1,0,0,1-1.24.23A5.48,5.48,0,0,1,20.56,125.5Z" transform="translate(0)"/><path class="cls-1" d="M26.23,120a.45.45,0,0,1-.14-.33v0a.47.47,0,0,1,.47-.47h.06a.47.47,0,0,1,.47.47v0a.47.47,0,0,1-.47.47h-.06A.46.46,0,0,1,26.23,120Zm.06,5.73a.4.4,0,0,1-.12-.29v-4a.42.42,0,0,1,.12-.3.39.39,0,0,1,.3-.12.41.41,0,0,1,.42.42v4a.39.39,0,0,1-.12.29.42.42,0,0,1-.3.12A.4.4,0,0,1,26.29,125.78Z" transform="translate(0)"/><path class="cls-1" d="M28.59,125.78a.4.4,0,0,1-.12-.29v-4a.42.42,0,0,1,.12-.3.39.39,0,0,1,.3-.12.43.43,0,0,1,.42.42v.38a2.3,2.3,0,0,1,.62-.61,1.69,1.69,0,0,1,.95-.24,1.44,1.44,0,0,1,.89.28,1.55,1.55,0,0,1,.53.67,1.86,1.86,0,0,1,1.7-1,1.41,1.41,0,0,1,.86.26,1.55,1.55,0,0,1,.51.67,2.23,2.23,0,0,1,.17.85v2.66a.39.39,0,0,1-.12.29.42.42,0,0,1-.3.12.41.41,0,0,1-.42-.42V123a1.47,1.47,0,0,0-.21-.88.86.86,0,0,0-.73-.28,1.22,1.22,0,0,0-.78.24,2.37,2.37,0,0,0-.55.64v2.77a.39.39,0,0,1-.12.29.42.42,0,0,1-.3.12.41.41,0,0,1-.42-.42V123a1.47,1.47,0,0,0-.21-.88.86.86,0,0,0-.73-.28,1.22,1.22,0,0,0-.78.24,2.35,2.35,0,0,0-.55.64v2.77a.39.39,0,0,1-.12.29.42.42,0,0,1-.3.12A.4.4,0,0,1,28.59,125.78Z" transform="translate(0)"/><path class="cls-1" d="M37.06,127.9a.42.42,0,0,1-.12-.3v-6.08a.41.41,0,0,1,.42-.42.42.42,0,0,1,.3.12.39.39,0,0,1,.13.29v.24a2.12,2.12,0,0,1,1.58-.7,2.17,2.17,0,0,1,1.08.29,2.21,2.21,0,0,1,.83.85,2.84,2.84,0,0,1,0,2.61,2.21,2.21,0,0,1-.83.85,2.17,2.17,0,0,1-1.08.29,2.12,2.12,0,0,1-1.58-.7v2.35a.41.41,0,0,1-.42.42A.39.39,0,0,1,37.06,127.9Zm3.28-3.17a2,2,0,0,0,0-2.46,1.45,1.45,0,0,0-1.1-.43,1.74,1.74,0,0,0-.8.19,2.27,2.27,0,0,0-.66.5v1.94a2.27,2.27,0,0,0,.66.5,1.74,1.74,0,0,0,.8.19A1.45,1.45,0,0,0,40.34,124.73Z" transform="translate(0)"/><path class="cls-1" d="M42.89,125.78a.4.4,0,0,1-.12-.29v-6a.42.42,0,0,1,.12-.3.39.39,0,0,1,.3-.12.41.41,0,0,1,.42.42v6a.39.39,0,0,1-.12.29.42.42,0,0,1-.3.12A.4.4,0,0,1,42.89,125.78Z" transform="translate(0)"/><path class="cls-1" d="M45.41,125.3a2.46,2.46,0,0,1-.63-1.8,3,3,0,0,1,.24-1.21,2.06,2.06,0,0,1,.74-.9,2.12,2.12,0,0,1,1.23-.34,2.14,2.14,0,0,1,1.18.32,2.06,2.06,0,0,1,.76.85,2.62,2.62,0,0,1,.26,1.16.4.4,0,0,1-.42.42H45.63a1.52,1.52,0,0,0,.48,1,1.65,1.65,0,0,0,1.14.36,2.74,2.74,0,0,0,.68-.07,2.81,2.81,0,0,0,.57-.21.38.38,0,0,1,.42.06.33.33,0,0,1,.11.26.4.4,0,0,1-.24.34,3.42,3.42,0,0,1-.71.3,3.34,3.34,0,0,1-.9.1A2.35,2.35,0,0,1,45.41,125.3Zm2.94-2.19a1.48,1.48,0,0,0-.24-.76,1.28,1.28,0,0,0-.51-.45,1.4,1.4,0,0,0-1.24,0,1.24,1.24,0,0,0-.51.45,1.51,1.51,0,0,0-.23.76Z" transform="translate(0)"/><path class="cls-1" d="M50.14,125.53a.35.35,0,0,1-.16-.3.37.37,0,0,1,.1-.26.34.34,0,0,1,.26-.11.41.41,0,0,1,.17,0,3.8,3.8,0,0,0,.59.2,2.77,2.77,0,0,0,.67.07q1,0,1-.66a.35.35,0,0,0-.24-.32,4.73,4.73,0,0,0-.77-.25,7,7,0,0,1-.9-.27,1.58,1.58,0,0,1-.61-.42,1.06,1.06,0,0,1-.25-.74,1.33,1.33,0,0,1,.47-1.05,2,2,0,0,1,1.33-.41,3.84,3.84,0,0,1,1.34.23.34.34,0,0,1,.2.14.37.37,0,0,1,.07.21.36.36,0,0,1-.11.26.35.35,0,0,1-.26.11l-.12,0a3.55,3.55,0,0,0-1.05-.17,1.44,1.44,0,0,0-.78.18.54.54,0,0,0-.28.47.43.43,0,0,0,.26.41,3.71,3.71,0,0,0,.8.25,7.89,7.89,0,0,1,.89.27,1.47,1.47,0,0,1,.59.42,1.14,1.14,0,0,1,.25.77,1.22,1.22,0,0,1-.47,1,2,2,0,0,1-1.32.39A3.43,3.43,0,0,1,50.14,125.53Z" transform="translate(0)"/><path class="cls-1" d="M55,124.73v-2.86h-.66a.17.17,0,0,1-.18-.17.19.19,0,0,1,.08-.16l1.26-1.23a.23.23,0,0,1,.16-.08.16.16,0,0,1,.12.06.19.19,0,0,1,.05.13v.74h1a.36.36,0,0,1,.26.61.34.34,0,0,1-.26.11h-1v2.79q0,.36.17.46a.86.86,0,0,0,.43.1,1.28,1.28,0,0,0,.37-.06l.08,0H57a.32.32,0,0,1,.23.1.31.31,0,0,1,.1.24.35.35,0,0,1-.21.32,1.8,1.8,0,0,1-.77.17Q55,125.95,55,124.73Z" transform="translate(0)"/><path class="cls-1" d="M61.52,125.67a1.76,1.76,0,0,1-.74-.71,1.9,1.9,0,0,1-.24-.92,1.77,1.77,0,0,1,.33-1.08,2.75,2.75,0,0,1,.72-.7,3,3,0,0,1-.42-.64,1.74,1.74,0,0,1,.06-1.51,1.51,1.51,0,0,1,.6-.59,1.87,1.87,0,0,1,.92-.22,2.2,2.2,0,0,1,1.23.41.35.35,0,0,1,.12.12.29.29,0,0,1,.05.16.32.32,0,0,1-.09.23.31.31,0,0,1-.23.1.37.37,0,0,1-.17,0,1.81,1.81,0,0,0-.87-.24,1,1,0,0,0-.73.25.8.8,0,0,0-.26.6,1.17,1.17,0,0,0,.09.47,1.45,1.45,0,0,0,.26.4c.12.13.31.32.57.56l1.93,1.82a3.88,3.88,0,0,0,.31-.56.39.39,0,0,1,.14-.17.38.38,0,0,1,.22-.06.39.39,0,0,1,.28.11.36.36,0,0,1,.11.27.41.41,0,0,1,0,.18,4.72,4.72,0,0,1-.44.76l.62.59a.54.54,0,0,1,.11.13.33.33,0,0,1,0,.17.38.38,0,0,1-.1.27.36.36,0,0,1-.28.11.41.41,0,0,1-.29-.11l-.62-.59a3.25,3.25,0,0,1-.88.53,3,3,0,0,1-2.3-.08Zm2.63-1-2.06-1.93a1.89,1.89,0,0,0-.54.53,1.3,1.3,0,0,0-.22.76,1,1,0,0,0,.4.84,1.52,1.52,0,0,0,1,.33A2.2,2.2,0,0,0,64.15,124.72Z" transform="translate(0)"/><path class="cls-1" d="M70.11,125.68a.56.56,0,0,1-.17-.41v-5.48a.42.42,0,0,1,.12-.3.4.4,0,0,1,.3-.12.43.43,0,0,1,.42.42V125h3a.42.42,0,0,1,.42.42.39.39,0,0,1-.12.29.42.42,0,0,1-.3.12H70.52A.56.56,0,0,1,70.11,125.68Z" transform="translate(0)"/><path class="cls-1" d="M75.16,120a.45.45,0,0,1-.14-.33v0a.47.47,0,0,1,.47-.47h.06a.47.47,0,0,1,.47.47v0a.47.47,0,0,1-.47.47h-.06A.46.46,0,0,1,75.16,120Zm.06,5.73a.4.4,0,0,1-.12-.29v-4a.42.42,0,0,1,.12-.3.39.39,0,0,1,.3-.12.41.41,0,0,1,.42.42v4a.39.39,0,0,1-.12.29.42.42,0,0,1-.3.12A.4.4,0,0,1,75.21,125.78Z" transform="translate(0)"/><path class="cls-1" d="M78.51,127.93a3.54,3.54,0,0,1-.9-.34.35.35,0,0,1-.17-.32.38.38,0,0,1,.11-.26.34.34,0,0,1,.26-.12.46.46,0,0,1,.17,0,3.36,3.36,0,0,0,1.52.35q1.41,0,1.41-1.5v-.62a2.08,2.08,0,0,1-1.58.7,2.22,2.22,0,0,1-1.06-.27,2.2,2.2,0,0,1-.85-.81,2.77,2.77,0,0,1,0-2.63,2.21,2.21,0,0,1,.85-.81,2.23,2.23,0,0,1,1.06-.27,2.08,2.08,0,0,1,1.58.7v-.23a.42.42,0,0,1,.12-.3.39.39,0,0,1,.3-.12.42.42,0,0,1,.42.42v4.13a2.59,2.59,0,0,1-.56,1.79,2,2,0,0,1-1.61.63A4.35,4.35,0,0,1,78.51,127.93Zm1.77-3a2.77,2.77,0,0,0,.64-.5v-1.9a2.78,2.78,0,0,0-.64-.5,1.55,1.55,0,0,0-.77-.18,1.57,1.57,0,0,0-1.13.42,1.9,1.9,0,0,0,0,2.43,1.71,1.71,0,0,0,1.9.24Z" transform="translate(0)"/><path class="cls-1" d="M83.34,125.78a.4.4,0,0,1-.12-.29v-6a.42.42,0,0,1,.12-.3.39.39,0,0,1,.3-.12.43.43,0,0,1,.42.42v2.41a3.07,3.07,0,0,1,.76-.62,1.91,1.91,0,0,1,1-.23,1.6,1.6,0,0,1,.88.24,1.56,1.56,0,0,1,.57.66,2.09,2.09,0,0,1,.2.91v2.62a.39.39,0,0,1-.12.29.42.42,0,0,1-.3.12.41.41,0,0,1-.42-.42V123q0-1.13-1-1.13a1.48,1.48,0,0,0-.83.24,3,3,0,0,0-.69.65v2.77a.39.39,0,0,1-.12.29.42.42,0,0,1-.3.12A.4.4,0,0,1,83.34,125.78Z" transform="translate(0)"/><path class="cls-1" d="M89,124.73v-2.86h-.66a.17.17,0,0,1-.18-.17.19.19,0,0,1,.08-.16l1.26-1.23a.23.23,0,0,1,.16-.08.16.16,0,0,1,.12.06.19.19,0,0,1,.05.13v.74h1a.36.36,0,0,1,.26.61.34.34,0,0,1-.26.11h-1v2.79q0,.36.17.46a.86.86,0,0,0,.43.1,1.28,1.28,0,0,0,.37-.06l.08,0H91a.32.32,0,0,1,.23.1.31.31,0,0,1,.1.24.35.35,0,0,1-.21.32,1.8,1.8,0,0,1-.77.17Q89,125.95,89,124.73Z" transform="translate(0)"/><path class="cls-1" d="M92.54,125.3a2.46,2.46,0,0,1-.63-1.8,3,3,0,0,1,.24-1.21,2.06,2.06,0,0,1,.74-.9,2.12,2.12,0,0,1,1.23-.34,2.14,2.14,0,0,1,1.18.32,2.06,2.06,0,0,1,.76.85,2.62,2.62,0,0,1,.26,1.16.4.4,0,0,1-.42.42H92.76a1.52,1.52,0,0,0,.48,1,1.65,1.65,0,0,0,1.14.36,2.74,2.74,0,0,0,.68-.07,2.81,2.81,0,0,0,.57-.21.38.38,0,0,1,.42.06.33.33,0,0,1,.11.26.4.4,0,0,1-.24.34,3.42,3.42,0,0,1-.71.3,3.34,3.34,0,0,1-.9.1A2.35,2.35,0,0,1,92.54,125.3Zm2.94-2.19a1.48,1.48,0,0,0-.24-.76,1.28,1.28,0,0,0-.51-.45,1.4,1.4,0,0,0-1.24,0,1.24,1.24,0,0,0-.51.45,1.51,1.51,0,0,0-.23.76Z" transform="translate(0)"/><path class="cls-1" d="M97.26,125.53a.35.35,0,0,1-.16-.3.37.37,0,0,1,.1-.26.34.34,0,0,1,.26-.11.41.41,0,0,1,.17,0,3.8,3.8,0,0,0,.59.2,2.77,2.77,0,0,0,.67.07q1,0,1-.66a.35.35,0,0,0-.24-.32,4.73,4.73,0,0,0-.77-.25,7,7,0,0,1-.9-.27,1.58,1.58,0,0,1-.61-.42,1.06,1.06,0,0,1-.25-.74,1.33,1.33,0,0,1,.47-1.05,2,2,0,0,1,1.33-.41,3.84,3.84,0,0,1,1.34.23.34.34,0,0,1,.2.14.37.37,0,0,1,.07.21.36.36,0,0,1-.11.26.35.35,0,0,1-.26.11l-.12,0a3.55,3.55,0,0,0-1.05-.17,1.44,1.44,0,0,0-.78.18.54.54,0,0,0-.28.47.43.43,0,0,0,.26.41,3.71,3.71,0,0,0,.8.25,7.89,7.89,0,0,1,.89.27,1.47,1.47,0,0,1,.59.42,1.14,1.14,0,0,1,.25.77,1.22,1.22,0,0,1-.47,1,2,2,0,0,1-1.32.39A3.43,3.43,0,0,1,97.26,125.53Z" transform="translate(0)"/><path class="cls-1" d="M102.09,124.73v-2.86h-.66a.17.17,0,0,1-.18-.17.19.19,0,0,1,.08-.16l1.26-1.23a.23.23,0,0,1,.16-.08.16.16,0,0,1,.12.06.19.19,0,0,1,.05.13v.74h1a.36.36,0,0,1,.26.61.34.34,0,0,1-.26.11h-1v2.79q0,.36.17.46a.86.86,0,0,0,.43.1,1.28,1.28,0,0,0,.37-.06l.08,0h.11a.32.32,0,0,1,.23.1.31.31,0,0,1,.1.24.35.35,0,0,1-.21.32,1.8,1.8,0,0,1-.77.17Q102.09,125.95,102.09,124.73Z" transform="translate(0)"/><path class="cls-1" d="M57.83,114.93a.26.26,0,0,1-.08-.19v-3.37h-1.2a.24.24,0,0,1-.25-.25.25.25,0,0,1,.07-.18.23.23,0,0,1,.18-.07h2.93a.25.25,0,0,1,.25.25.24.24,0,0,1-.07.18.25.25,0,0,1-.18.07H58.29v3.37a.25.25,0,0,1-.08.19A.27.27,0,0,1,58,115,.26.26,0,0,1,57.83,114.93Z" transform="translate(0)"/><path class="cls-1" d="M60.32,114.93a.26.26,0,0,1-.08-.19v-3.82a.26.26,0,0,1,.08-.19.25.25,0,0,1,.19-.08.27.27,0,0,1,.27.27v1.54a2,2,0,0,1,.48-.39,1.22,1.22,0,0,1,.61-.15,1,1,0,0,1,.56.15,1,1,0,0,1,.36.42,1.33,1.33,0,0,1,.13.58v1.67a.25.25,0,0,1-.08.19.27.27,0,0,1-.19.08.26.26,0,0,1-.26-.26v-1.61q0-.72-.65-.72a.94.94,0,0,0-.53.15,1.9,1.9,0,0,0-.44.41v1.76a.25.25,0,0,1-.08.19.27.27,0,0,1-.19.08A.26.26,0,0,1,60.32,114.93Z" transform="translate(0)"/><path class="cls-1" d="M64,114.62a1.57,1.57,0,0,1-.4-1.15,1.92,1.92,0,0,1,.15-.77,1.32,1.32,0,0,1,.47-.57,1.35,1.35,0,0,1,.78-.22,1.37,1.37,0,0,1,.75.2,1.32,1.32,0,0,1,.48.54,1.67,1.67,0,0,1,.16.74.26.26,0,0,1-.07.19.26.26,0,0,1-.2.08h-2a1,1,0,0,0,.31.64,1.05,1.05,0,0,0,.72.23,1.72,1.72,0,0,0,.43,0,1.8,1.8,0,0,0,.36-.13l.11,0a.24.24,0,0,1,.17.06.21.21,0,0,1,.07.17.25.25,0,0,1-.15.22,2.09,2.09,0,0,1-.45.19,2.13,2.13,0,0,1-.58.06A1.5,1.5,0,0,1,64,114.62Zm1.87-1.4a.94.94,0,0,0-.15-.48.8.8,0,0,0-.33-.29.89.89,0,0,0-.79,0,.79.79,0,0,0-.32.29,1,1,0,0,0-.15.48Z" transform="translate(0)"/><path class="cls-1" d="M36.52,135.65a2.26,2.26,0,0,1-.91-.91,3.06,3.06,0,0,1,0-2.76,2.27,2.27,0,0,1,.91-.91,2.66,2.66,0,0,1,1.3-.32,3,3,0,0,1,.88.12,3.76,3.76,0,0,1,.77.33.29.29,0,0,1,.16.28.27.27,0,0,1-.08.19.28.28,0,0,1-.21.08.28.28,0,0,1-.13,0,3.29,3.29,0,0,0-.62-.25,2.55,2.55,0,0,0-.7-.09,2.07,2.07,0,0,0-1.06.26,1.65,1.65,0,0,0-.66.7,2.42,2.42,0,0,0,0,2,1.65,1.65,0,0,0,.66.7,2.07,2.07,0,0,0,1.06.26,2.55,2.55,0,0,0,.7-.09,3.29,3.29,0,0,0,.62-.25.3.3,0,0,1,.13,0,.29.29,0,0,1,.21.08.27.27,0,0,1,.08.2.29.29,0,0,1-.16.28,3.76,3.76,0,0,1-.77.33,3,3,0,0,1-.88.12A2.66,2.66,0,0,1,36.52,135.65Z" transform="translate(0)"/><path class="cls-1" d="M41,135.72a1.62,1.62,0,0,1-.65-.68,2.32,2.32,0,0,1,0-2,1.63,1.63,0,0,1,.65-.68,2.11,2.11,0,0,1,2,0,1.65,1.65,0,0,1,.65.68,2.29,2.29,0,0,1,0,2,1.64,1.64,0,0,1-.65.68,2.11,2.11,0,0,1-2,0Zm1.55-.5a1.11,1.11,0,0,0,.45-.44,1.67,1.67,0,0,0,0-1.5,1.08,1.08,0,0,0-.45-.43,1.28,1.28,0,0,0-.57-.13,1.29,1.29,0,0,0-.58.13,1.06,1.06,0,0,0-.45.43,1.7,1.7,0,0,0,0,1.5,1.08,1.08,0,0,0,.45.44,1.26,1.26,0,0,0,.58.14A1.25,1.25,0,0,0,42.58,135.22Z" transform="translate(0)"/><path class="cls-1" d="M45.47,135.73a1.73,1.73,0,0,1-.65-.67,2.23,2.23,0,0,1,0-2.05,1.73,1.73,0,0,1,.65-.67,1.7,1.7,0,0,1,.85-.23,1.67,1.67,0,0,1,1.24.55v-1.78a.32.32,0,0,1,.1-.24.33.33,0,0,1,.24-.09.31.31,0,0,1,.23.1.33.33,0,0,1,.09.24v4.71a.32.32,0,0,1-.33.33.33.33,0,0,1-.24-.09.31.31,0,0,1-.1-.23v-.19a1.67,1.67,0,0,1-1.24.55A1.7,1.7,0,0,1,45.47,135.73ZM47,135.2a1.79,1.79,0,0,0,.52-.4v-1.52a1.81,1.81,0,0,0-.52-.4,1.37,1.37,0,0,0-.63-.15,1.14,1.14,0,0,0-.86.34,1.59,1.59,0,0,0,0,1.93,1.14,1.14,0,0,0,.86.34A1.37,1.37,0,0,0,47,135.2Z" transform="translate(0)"/><path class="cls-1" d="M49.64,135.46a1.93,1.93,0,0,1-.5-1.42,2.36,2.36,0,0,1,.19-.95,1.62,1.62,0,0,1,.58-.7,1.67,1.67,0,0,1,1-.27,1.68,1.68,0,0,1,.93.25,1.61,1.61,0,0,1,.59.67,2.05,2.05,0,0,1,.2.91.32.32,0,0,1-.33.33H49.81a1.19,1.19,0,0,0,.38.79,1.3,1.3,0,0,0,.89.28,2.21,2.21,0,0,0,.53-.06,2.26,2.26,0,0,0,.45-.17.28.28,0,0,1,.13,0,.29.29,0,0,1,.2.08.26.26,0,0,1,.09.2.31.31,0,0,1-.19.27,2.7,2.7,0,0,1-.56.24A2.64,2.64,0,0,1,51,136,1.85,1.85,0,0,1,49.64,135.46Zm2.31-1.72a1.16,1.16,0,0,0-.19-.59,1,1,0,0,0-.4-.35,1.11,1.11,0,0,0-1,0,1,1,0,0,0-.4.35,1.19,1.19,0,0,0-.18.59Z" transform="translate(0)"/><path class="cls-1" d="M56.4,135.63a2.29,2.29,0,0,1-.9-.92,2.78,2.78,0,0,1-.32-1.34,2.74,2.74,0,0,1,.33-1.36,2.36,2.36,0,0,1,.91-.92,2.55,2.55,0,0,1,1.28-.33,3.21,3.21,0,0,1,1,.14,3.65,3.65,0,0,1,.82.38.26.26,0,0,1,.1.1.31.31,0,0,1,0,.16.29.29,0,0,1-.3.3.33.33,0,0,1-.15,0,3,3,0,0,0-.68-.3,2.59,2.59,0,0,0-.74-.1,2.1,2.1,0,0,0-1,.23,1.67,1.67,0,0,0-.69.68,2.33,2.33,0,0,0,0,2.07,1.74,1.74,0,0,0,.68.7,2.07,2.07,0,0,0,1.06.26,2.62,2.62,0,0,0,1.27-.32v-1.31h-1.2a.3.3,0,0,1,0-.59h1.43a.35.35,0,0,1,.35.35v1.65a.5.5,0,0,1-.08.27.47.47,0,0,1-.2.18,3.66,3.66,0,0,1-1.66.41A2.63,2.63,0,0,1,56.4,135.63Z" transform="translate(0)"/><path class="cls-1" d="M61.11,135.46a1.93,1.93,0,0,1-.5-1.42,2.36,2.36,0,0,1,.19-.95,1.62,1.62,0,0,1,.58-.7,1.67,1.67,0,0,1,1-.27,1.68,1.68,0,0,1,.93.25,1.61,1.61,0,0,1,.59.67,2.05,2.05,0,0,1,.2.91.32.32,0,0,1-.33.33H61.28a1.19,1.19,0,0,0,.38.79,1.3,1.3,0,0,0,.89.28,2.21,2.21,0,0,0,.53-.06,2.26,2.26,0,0,0,.45-.17.28.28,0,0,1,.13,0,.29.29,0,0,1,.2.08.26.26,0,0,1,.09.2.31.31,0,0,1-.19.27,2.7,2.7,0,0,1-.56.24,2.64,2.64,0,0,1-.71.08A1.85,1.85,0,0,1,61.11,135.46Zm2.31-1.72a1.16,1.16,0,0,0-.19-.59,1,1,0,0,0-.4-.35,1.11,1.11,0,0,0-1,0,1,1,0,0,0-.4.35,1.19,1.19,0,0,0-.18.59Z" transform="translate(0)"/><path class="cls-1" d="M65,135.83a.32.32,0,0,1-.09-.23v-3.11a.33.33,0,0,1,.09-.24.31.31,0,0,1,.23-.1.33.33,0,0,1,.33.33v.3a2.42,2.42,0,0,1,.59-.49,1.51,1.51,0,0,1,.75-.18,1.25,1.25,0,0,1,.69.19,1.23,1.23,0,0,1,.45.51,1.64,1.64,0,0,1,.16.72v2.06a.31.31,0,0,1-.1.23.33.33,0,0,1-.24.09.32.32,0,0,1-.33-.33v-2q0-.88-.8-.88a1.15,1.15,0,0,0-.65.19,2.34,2.34,0,0,0-.54.51v2.18a.31.31,0,0,1-.1.23.33.33,0,0,1-.24.09A.32.32,0,0,1,65,135.83Z" transform="translate(0)"/><path class="cls-1" d="M69.63,135.46a1.93,1.93,0,0,1-.5-1.42,2.36,2.36,0,0,1,.19-.95,1.62,1.62,0,0,1,.58-.7,1.67,1.67,0,0,1,1-.27,1.68,1.68,0,0,1,.93.25,1.61,1.61,0,0,1,.59.67,2.05,2.05,0,0,1,.2.91.32.32,0,0,1-.33.33H69.8a1.19,1.19,0,0,0,.38.79,1.3,1.3,0,0,0,.89.28,2.21,2.21,0,0,0,.53-.06,2.26,2.26,0,0,0,.45-.17.28.28,0,0,1,.13,0,.29.29,0,0,1,.2.08.26.26,0,0,1,.09.2.31.31,0,0,1-.19.27,2.7,2.7,0,0,1-.56.24A2.64,2.64,0,0,1,71,136,1.85,1.85,0,0,1,69.63,135.46Zm2.31-1.72a1.16,1.16,0,0,0-.19-.59,1,1,0,0,0-.4-.35,1.11,1.11,0,0,0-1,0,1,1,0,0,0-.4.35,1.19,1.19,0,0,0-.18.59Z" transform="translate(0)"/><path class="cls-1" d="M73.56,135.83a.32.32,0,0,1-.09-.23v-3.11a.33.33,0,0,1,.09-.24.31.31,0,0,1,.23-.1.33.33,0,0,1,.33.33v.31a1.43,1.43,0,0,1,1.14-.68h0a.3.3,0,0,1,.23.09.32.32,0,0,1,.09.23.29.29,0,0,1-.09.22.34.34,0,0,1-.24.09h0a1.23,1.23,0,0,0-.64.17,1.46,1.46,0,0,0-.49.47v2.2a.31.31,0,0,1-.1.23.33.33,0,0,1-.24.09A.32.32,0,0,1,73.56,135.83Z" transform="translate(0)"/><path class="cls-1" d="M76.6,135.83a1,1,0,0,1-.43-.38,1.05,1.05,0,0,1-.16-.58,1,1,0,0,1,.42-.86,2,2,0,0,1,1.24-.32h.88v-.06a.88.88,0,0,0-.24-.69,1.08,1.08,0,0,0-.74-.21,2.45,2.45,0,0,0-.49,0,4,4,0,0,0-.47.13h-.09a.26.26,0,0,1-.19-.08.27.27,0,0,1-.08-.2.28.28,0,0,1,.19-.28,3.19,3.19,0,0,1,1.25-.26,1.64,1.64,0,0,1,.85.2,1.27,1.27,0,0,1,.51.53,1.53,1.53,0,0,1,.16.7v2.05a.31.31,0,0,1-.1.23.33.33,0,0,1-.24.09.32.32,0,0,1-.33-.33v-.19a1.82,1.82,0,0,1-1.36.55A1.35,1.35,0,0,1,76.6,135.83Zm1.45-.61a1.71,1.71,0,0,0,.5-.39v-.61h-.79q-1.09,0-1.09.57a.54.54,0,0,0,.18.42.88.88,0,0,0,.59.16A1.32,1.32,0,0,0,78,135.23Z" transform="translate(0)"/><path class="cls-1" d="M80.45,135v-2.25h-.52a.14.14,0,0,1-.14-.14.15.15,0,0,1,.07-.12l1-1a.19.19,0,0,1,.12-.07.13.13,0,0,1,.1,0,.15.15,0,0,1,0,.1v.58h.82a.27.27,0,0,1,.28.28.28.28,0,0,1-.08.2.27.27,0,0,1-.2.08h-.82v2.19c0,.19,0,.31.13.36a.68.68,0,0,0,.34.08,1,1,0,0,0,.29,0H82a.26.26,0,0,1,.18.08.25.25,0,0,1,.08.19.28.28,0,0,1-.17.25,1.42,1.42,0,0,1-.6.13Q80.45,136,80.45,135Z" transform="translate(0)"/><path class="cls-1" d="M83.6,135.72A1.62,1.62,0,0,1,83,135a2.32,2.32,0,0,1,0-2,1.63,1.63,0,0,1,.65-.68,2.11,2.11,0,0,1,2,0,1.65,1.65,0,0,1,.65.68,2.29,2.29,0,0,1,0,2,1.64,1.64,0,0,1-.65.68,2.11,2.11,0,0,1-2,0Zm1.55-.5a1.11,1.11,0,0,0,.45-.44,1.67,1.67,0,0,0,0-1.5,1.08,1.08,0,0,0-.45-.43,1.28,1.28,0,0,0-.57-.13,1.29,1.29,0,0,0-.58.13,1.06,1.06,0,0,0-.45.43,1.7,1.7,0,0,0,0,1.5,1.08,1.08,0,0,0,.45.44,1.26,1.26,0,0,0,.58.14A1.25,1.25,0,0,0,85.15,135.22Z" transform="translate(0)"/><path class="cls-1" d="M87.45,135.83a.32.32,0,0,1-.09-.23v-3.11a.33.33,0,0,1,.09-.24.31.31,0,0,1,.23-.1.33.33,0,0,1,.33.33v.31a1.43,1.43,0,0,1,1.14-.68h0a.3.3,0,0,1,.23.09.32.32,0,0,1,.09.23.29.29,0,0,1-.09.22.34.34,0,0,1-.24.09h0a1.23,1.23,0,0,0-.64.17,1.46,1.46,0,0,0-.49.47v2.2a.31.31,0,0,1-.1.23.33.33,0,0,1-.24.09A.32.32,0,0,1,87.45,135.83Z" transform="translate(0)"/></svg>