<?xml version="1.0" encoding="UTF-8"?>
<svg width="1029px" height="722px" viewBox="0 0 1029 722" version="1.1" xmlns="http://www.w3.org/2000/svg" xmlns:xlink="http://www.w3.org/1999/xlink">
    <!-- Generator: Sketch 42 (36781) - http://www.bohemiancoding.com/sketch -->
    <title>MonoWhite_Vertical</title>
    <desc>Created with Sketch.</desc>
    <defs></defs>
    <g id="EXPORTS" stroke="none" stroke-width="1" fill="none" fill-rule="evenodd">
        <g id="MonoWhite_Vertical" fill="#000000">
            <g id="Group" transform="translate(395.000000, 141.000000)">
                <path d="M166.036792,62.4149698 C171.224852,67.7185043 171.125344,76.3418942 165.720665,81.7465732 C163.211735,84.255504 163.211735,88.3226129 165.720665,90.8315437 C168.229385,93.3402633 172.296705,93.3404745 174.805636,90.8315437 C185.198455,80.4387248 185.357812,63.6802881 175.122048,53.3297132 L212.307338,16.1444236 C214.006016,17.8431018 215.307491,19.9347578 215.814559,22.0221882 L227.212817,68.9367648 C229.161015,75.7566197 226.678282,85.3467569 221.664646,90.3603929 L182.176928,129.848112 C180.659737,131.365302 179.690181,134.312424 180.009211,136.435772 L185.732743,174.535603 C186.784698,181.550256 182.157913,188.970142 175.40123,191.112505 L100.17535,214.963933 C97.6590242,215.760452 94.1055331,214.889774 91.8237265,212.607968 C88.905972,209.690213 88.9038592,204.963916 91.8173882,202.050387 L107.022882,186.844893 C108.537748,185.330027 108.537959,182.874761 107.020981,181.357782 L77.0574802,151.394281 L166.036832,62.4149292 Z M175.121145,53.3288001 C175.086521,53.2937903 175.051777,53.2588539 175.016914,53.2239913 C164.675049,42.8821257 147.83764,43.0069912 137.409151,53.4350584 C134.900431,55.9442005 134.900431,60.0113094 137.409362,62.5202402 C139.918082,65.0289598 143.985402,65.029171 146.494333,62.5202402 C151.935173,57.0793993 160.637941,57.0149594 165.931944,62.3089618 C165.966826,62.3438444 166.001476,62.378875 166.035894,62.4140517 L77.0565722,151.393373 L47.0930717,121.429873 C45.5760929,119.912894 43.1208268,119.913105 41.6059608,121.427971 L26.4004667,136.633465 C23.4869378,139.546994 18.7606404,139.544881 15.8428859,136.627127 C13.5610793,134.34532 12.6904011,130.791829 13.4869206,128.275504 L37.3383487,53.0496237 C39.4807115,46.292941 46.9005971,41.6661556 53.9152507,42.7181107 L92.0150818,48.4416422 C94.1384295,48.7606725 97.0855517,47.791116 98.6027418,46.2739259 L138.090461,6.78620718 C143.104097,1.77257112 152.694234,-0.710161175 159.514089,1.23803681 L206.428665,12.6362944 C208.516096,13.1433625 210.607752,14.4448373 212.30643,16.1435155 L175.121166,53.3287793 Z" id="Combined-Shape"></path>
                <path d="M11.9097904,170.060727 C14.41851,167.552007 18.4856189,167.551584 20.9947609,170.060727 C23.5036918,172.569657 23.5043256,176.636555 20.9949722,179.145908 C18.4862527,181.654628 14.4191438,181.65505 11.9097904,179.145697 C9.40107088,176.636978 9.40043705,172.57008 11.9097904,170.060727 Z" id="Fill-7"></path>
                <path d="M58.3901899,160.765323 C60.8993319,158.256181 64.9668634,158.255336 67.4760055,160.764478 C69.9849363,163.273408 69.984725,167.340729 67.4751604,169.850293 L39.1657584,198.159695 C36.656405,200.669049 32.5890848,200.670105 30.0797315,198.160752 C27.5710119,195.652032 27.5712232,191.584289 30.0807879,189.074725 L58.3901899,160.765323 Z" id="Fill-9"></path>
                <path d="M16.3460027,202.80951 C18.8551447,200.300368 22.9222536,200.299523 25.431607,202.808876 C27.9403266,205.317596 27.9422281,209.383226 25.4309732,211.89448 L11.2765891,226.048865 C8.76765829,228.557795 4.70012683,228.558641 2.19098474,226.049498 C-0.317946074,223.540568 -0.319636301,219.475149 2.19161858,216.963894 L16.3460027,202.80951 Z" id="Fill-11"></path>
                <path d="M39.7979033,142.172614 C42.3070454,139.663472 46.3743656,139.662838 48.8835077,142.17198 C51.3924385,144.680911 51.3941287,148.746329 48.8828738,151.257584 L34.7284898,165.411968 C32.2195589,167.920899 28.1522388,167.921955 25.6428854,165.412602 C23.1341659,162.903883 23.1322644,158.838253 25.6435192,156.326998 L39.7979033,142.172614 Z" id="Fill-14"></path>
                <path d="M63.249804,193.090704 C65.7589461,190.581562 69.826055,190.580717 72.3354083,193.09007 C74.8441279,195.59879 74.8460294,199.66442 72.3347745,202.175675 L58.1803904,216.330059 C55.6714596,218.83899 51.6039282,218.839835 49.0947861,216.330693 C46.5858552,213.821762 46.584165,209.756343 49.0954199,207.245088 L63.249804,193.090704 Z" id="Fill-16"></path>
                <path d="M76.9835328,179.356975 C79.4922523,176.848256 83.5593612,176.847833 86.0685033,179.356975 C88.5774341,181.865906 88.5778567,185.932593 86.0685033,188.441946 C83.5597838,190.950666 79.4928862,190.951299 76.9835328,188.441946 C74.4748133,185.933226 74.4741794,181.866329 76.9835328,179.356975 Z" id="Fill-18"></path>
            </g>
            <path d="M324.255386,479.824116 C326.154628,479.765541 327.878689,479.085359 329.324401,477.75089 C330.70506,476.364591 331.411643,474.664136 331.411643,472.715912 C331.411643,470.582984 330.70506,468.854188 329.324401,467.384758 C327.878689,466.020055 326.154628,465.311532 324.255386,465.311532 L292.648585,465.311532 C290.749343,465.370107 289.025282,466.050289 287.57957,467.384758 C286.198911,468.771057 285.492328,470.471512 285.492328,472.419737 C285.492328,474.552664 286.198911,476.28146 287.57957,477.75089 C289.025282,479.115593 290.749343,479.824116 292.648585,479.824116 L324.255386,479.824116 Z M787.669551,426.463295 C789.012401,424.507155 789.682337,422.332535 789.575011,420.022875 C789.374547,417.745966 788.404178,415.950232 786.698177,414.71075 C784.830437,413.353757 782.797915,412.967763 780.497704,413.427826 C778.241446,414.020241 776.355463,415.311352 774.96132,417.230225 L751.760279,449.163718 C750.417429,451.119858 749.747493,453.294478 749.854819,455.604137 C750.055283,457.881046 751.025652,459.67678 752.731653,460.916263 C754.599393,462.273256 756.631915,462.659249 758.932126,462.199187 C761.188384,461.606772 763.074366,460.315661 764.46851,458.396788 L787.669551,426.463295 Z M180.942697,529.966574 C179.472277,528.506028 178.737079,526.70846 178.737079,524.573816 L178.737079,428.009749 L144.125843,428.009749 C142.089877,428.009749 140.393265,427.335661 139.035955,425.987465 C137.678645,424.639269 137,422.954049 137,420.931755 C137,418.909461 137.678645,417.196154 139.035955,415.791783 C140.393265,414.387412 142.089877,413.685237 144.125843,413.685237 L228.617978,413.685237 C230.653943,413.685237 232.378832,414.387412 233.792697,415.791783 C235.206561,417.196154 235.913483,418.909461 235.913483,420.931755 C235.913483,422.954049 235.206561,424.639269 233.792697,425.987465 C232.378832,427.335661 230.653943,428.009749 228.617978,428.009749 L194.176404,428.009749 L194.176404,524.573816 C194.176404,526.70846 193.412929,528.506028 191.885955,529.966574 C190.358981,531.42712 188.520985,532.157382 186.37191,532.157382 C184.222836,532.157382 182.413116,531.42712 180.942697,529.966574 Z M256.782022,529.123955 C255.311603,527.66341 254.576404,525.865842 254.576404,523.731198 L254.576404,421.437326 C254.576404,419.302682 255.311603,417.477027 256.782022,415.960306 C258.252442,414.443586 260.062162,413.685237 262.211236,413.685237 L330.246067,413.685237 C332.282033,413.685237 334.006922,414.387412 335.420787,415.791783 C336.834651,417.196154 337.541573,418.909461 337.541573,420.931755 C337.541573,422.954049 336.834651,424.639269 335.420787,425.987465 C334.006922,427.335661 332.282033,428.009749 330.246067,428.009749 L270.01573,428.009749 L270.01573,516.990251 L330.246067,516.990251 C332.282033,516.990251 334.006922,517.692426 335.420787,519.096797 C336.834651,520.501168 337.541573,522.214475 337.541573,524.236769 C337.541573,526.259063 336.834651,527.944283 335.420787,529.292479 C334.006922,530.640675 332.282033,531.314763 330.246067,531.314763 L262.211236,531.314763 C260.062162,531.314763 258.252442,530.584501 256.782022,529.123955 Z M365.960112,528.197075 C363.867593,526.118606 362.821348,523.618863 362.821348,520.697772 L362.821348,420.594708 C362.821348,418.460064 363.556547,416.634409 365.026966,415.117688 C366.497386,413.600967 368.307105,412.842618 370.45618,412.842618 C372.605254,412.842618 374.443251,413.600967 375.970225,415.117688 C377.497199,416.634409 378.260674,418.460064 378.260674,420.594708 L378.260674,515.979109 L433.740449,515.979109 C435.889524,515.979109 437.72752,516.737458 439.254494,518.254178 C440.781468,519.770899 441.544944,521.596554 441.544944,523.731198 C441.544944,525.865842 440.781468,527.66341 439.254494,529.123955 C437.72752,530.584501 435.889524,531.314763 433.740449,531.314763 L373.510112,531.314763 C370.569274,531.314763 368.052632,530.275544 365.960112,528.197075 Z M481.755056,525.247911 C472.819431,520.079826 465.919875,512.945728 461.05618,503.845404 C456.192485,494.74508 453.647567,484.296716 453.421348,472.5 C453.647567,460.703284 456.192485,450.25492 461.05618,441.154596 C465.919875,432.054272 472.819431,424.920174 481.755056,419.752089 C490.690681,414.584004 501.09657,412 512.973034,412 C524.849498,412 535.227109,414.584004 544.10618,419.752089 C552.98525,424.920174 559.884807,432.082359 564.805056,441.238858 C569.725306,450.395357 572.298501,460.815633 572.524719,472.5 C572.298501,484.184367 569.725306,494.604643 564.805056,503.761142 C559.884807,512.917641 552.98525,520.079826 544.10618,525.247911 C535.227109,530.415996 524.849498,533 512.973034,533 C501.09657,533 490.690681,530.415996 481.755056,525.247911 Z M536.55618,512.608635 C543.229621,508.564047 548.319458,503.058995 551.825843,496.093315 C555.332227,489.127635 557.085393,481.263275 557.085393,472.5 C557.085393,463.736725 555.332227,455.872365 551.825843,448.906685 C548.319458,441.941005 543.229621,436.435953 536.55618,432.391365 C529.882738,428.346776 522.021768,426.324513 512.973034,426.324513 C503.81119,426.324513 495.921943,428.346776 489.305056,432.391365 C482.688169,436.435953 477.626609,441.941005 474.120225,448.906685 C470.61384,455.872365 468.860674,463.736725 468.860674,472.5 C468.860674,481.263275 470.61384,489.127635 474.120225,496.093315 C477.626609,503.058995 482.688169,508.564047 489.305056,512.608635 C495.921943,516.653224 503.81119,518.675487 512.973034,518.675487 C522.021768,518.675487 529.882738,516.653224 536.55618,512.608635 Z M595.259551,524.910864 C593.90224,524.349115 592.771166,523.422244 591.866292,522.130223 C590.961419,520.838202 590.508989,519.461939 590.508989,518.001393 C590.508989,516.091448 591.159357,514.434315 592.460112,513.029944 C593.760868,511.625573 595.429203,510.923398 597.465169,510.923398 C598.59626,510.923398 599.670781,511.148094 600.688764,511.597493 C611.094809,516.20383 622.235896,518.506964 634.11236,518.506964 C653.906466,518.506964 663.803371,512.046954 663.803371,499.126741 C663.803371,495.756251 662.530912,492.947551 659.985955,490.700557 C657.440999,488.453564 654.302266,486.684083 650.569663,485.392061 C646.83706,484.10004 641.521008,482.555255 634.621348,480.75766 C625.459505,478.398317 618.050965,476.12327 612.395506,473.932451 C606.740047,471.741632 601.876425,468.455454 597.804494,464.073816 C593.732564,459.692179 591.696629,453.850083 591.696629,446.547354 C591.696629,440.143422 593.393241,434.329413 596.786517,429.105153 C600.179792,423.880893 605.184798,419.724017 611.801685,416.634401 C618.418572,413.544785 626.364373,412 635.639326,412 C648.081336,412 659.33553,413.853742 669.402247,417.561281 C672.569304,418.684778 674.152809,420.931738 674.152809,424.302228 C674.152809,426.099823 673.530718,427.728869 672.286517,429.189415 C671.042316,430.649961 669.402257,431.380223 667.366292,431.380223 C666.687637,431.380223 665.782777,431.155527 664.651685,430.706128 C655.829169,427.672687 646.724017,426.155989 637.335955,426.155989 C628.40033,426.155989 621.133174,427.841209 615.53427,431.211699 C609.935365,434.58219 607.135955,439.300805 607.135955,445.367688 C607.135955,449.412276 608.464968,452.698455 611.123034,455.226323 C613.781099,457.754191 617.11777,459.720281 621.133146,461.124652 C625.148522,462.529023 630.605958,464.017634 637.505618,465.590529 C646.441243,467.725173 653.651845,469.859785 659.13764,471.994429 C664.623436,474.129073 669.317396,477.443339 673.219663,481.937326 C677.12193,486.431313 679.073034,492.498105 679.073034,500.137883 C679.073034,506.429465 677.263314,512.074952 673.64382,517.074513 C670.024326,522.074073 664.93449,525.978166 658.374157,528.786908 C651.813825,531.59565 644.235624,533 635.639326,533 C621.27446,533 607.81467,530.303648 595.259551,524.910864 Z M735.146629,529.966574 C733.619655,528.506028 732.85618,526.70846 732.85618,524.573816 L732.85618,481.600279 L692.306742,425.144847 C691.401868,423.684301 690.949438,422.167603 690.949438,420.594708 C690.949438,418.460064 691.65636,416.634409 693.070225,415.117688 C694.484089,413.600967 696.265532,412.842618 698.414607,412.842618 C701.242336,412.842618 703.504486,414.13462 705.201124,416.718663 L748.295506,478.934468 L748.295506,524.573816 C748.295506,526.70846 747.560307,528.506028 746.089888,529.966574 C744.619468,531.42712 742.809749,532.157382 740.660674,532.157382 C738.5116,532.157382 736.673603,531.42712 735.146629,529.966574 Z M808.186517,524.910864 C806.829207,524.349115 805.698132,523.422244 804.793258,522.130223 C803.888385,520.838202 803.435955,519.461939 803.435955,518.001393 C803.435955,516.091448 804.086323,514.434315 805.387079,513.029944 C806.687834,511.625573 808.35617,510.923398 810.392135,510.923398 C811.523227,510.923398 812.597748,511.148094 813.61573,511.597493 C824.021775,516.20383 835.162862,518.506964 847.039326,518.506964 C866.833432,518.506964 876.730337,512.046954 876.730337,499.126741 C876.730337,495.756251 875.457878,492.947551 872.912921,490.700557 C870.367965,488.453564 867.229232,486.684083 863.496629,485.392061 C859.764026,484.10004 854.447975,482.555255 847.548315,480.75766 C838.386471,478.398317 830.977931,476.12327 825.322472,473.932451 C819.667013,471.741632 814.803391,468.455454 810.731461,464.073816 C806.65953,459.692179 804.623596,453.850083 804.623596,446.547354 C804.623596,440.143422 806.320208,434.329413 809.713483,429.105153 C813.106759,423.880893 818.111765,419.724017 824.728652,416.634401 C831.345539,413.544785 839.291339,412 848.566292,412 C861.008302,412 872.262496,413.853742 882.329213,417.561281 C885.496271,418.684778 887.079775,420.931738 887.079775,424.302228 C887.079775,426.099823 886.457684,427.728869 885.213483,429.189415 C883.969282,430.649961 882.329224,431.380223 880.293258,431.380223 C879.614603,431.380223 878.709743,431.155527 877.578652,430.706128 C868.756136,427.672687 859.650983,426.155989 850.262921,426.155989 C841.327296,426.155989 834.06014,427.841209 828.461236,431.211699 C822.862332,434.58219 820.062921,439.300805 820.062921,445.367688 C820.062921,449.412276 821.391934,452.698455 824.05,455.226323 C826.708066,457.754191 830.044736,459.720281 834.060112,461.124652 C838.075488,462.529023 843.532924,464.017634 850.432584,465.590529 C859.368209,467.725173 866.578812,469.859785 872.064607,471.994429 C877.550402,474.129073 882.244363,477.443339 886.146629,481.937326 C890.048896,486.431313 892,492.498105 892,500.137883 C892,506.429465 890.19028,512.074952 886.570787,517.074513 C882.951293,522.074073 877.861456,525.978166 871.301124,528.786908 C864.740791,531.59565 857.16259,533 848.566292,533 C834.201426,533 820.741636,530.303648 808.186517,524.910864 Z" id="Combined-Shape-Copy"></path>
        </g>
    </g>
</svg>