<?xml version="1.0" encoding="UTF-8"?>
<svg width="500px" height="500px" viewBox="0 0 500 500" version="1.1" xmlns="http://www.w3.org/2000/svg" xmlns:xlink="http://www.w3.org/1999/xlink">
    <!-- Generator: Sketch 42 (36781) - http://www.bohemiancoding.com/sketch -->
    <title>MonoWhite_Rocket</title>
    <desc>Created with Sketch.</desc>
    <defs></defs>
    <g id="EXPORTS" stroke="none" stroke-width="1" fill="none" fill-rule="evenodd">
        <g id="MonoWhite_Rocket" fill="#000000">
            <g id="Group" transform="translate(86.000000, 99.000000)">
                <path d="M106.09932,207.90068 L64.8145049,166.676389 C62.7193199,164.584276 59.3282133,164.584567 57.2359463,166.673767 L36.2347801,187.644144 C32.2107409,191.662284 25.6829847,191.65937 21.6531092,187.635403 C18.5015774,184.488491 17.2990346,179.587759 18.3991526,176.117415 L51.3417063,72.3710255 C54.3006446,63.0526707 64.5486674,56.6717248 74.2370015,58.1225093 L126.858829,66.0160125 C129.791504,66.4559973 133.861941,65.1188513 135.957418,63.0264465 L190.496135,8.567685 C197.420751,1.65322098 210.666231,-1.77079362 220.085518,0.916027813 L284.881887,16.6357252 C287.571129,17.2880247 290.265449,18.8935561 292.519621,21.007746 L292.527355,21 C292.606081,21.0788417 292.684189,21.1582963 292.761657,21.2383431 C292.841704,21.3158112 292.921158,21.3939187 293,21.4726448 L292.992263,21.4803707 C295.106444,23.7345508 296.711975,26.4288706 297.364275,29.1181126 L313.083972,93.9144824 C315.770794,103.333769 312.346779,116.579249 305.432315,123.503865 L250.973554,178.042582 C248.881149,180.138059 247.544003,184.208496 247.983988,187.141171 L255.877491,239.762999 C257.328275,249.451333 250.947329,259.699355 241.628974,262.658294 L137.882585,295.600847 C134.412241,296.700965 129.511509,295.498423 126.364597,292.346891 C122.34063,288.317015 122.337716,281.789259 126.355856,277.76522 L147.326233,256.764054 C149.415433,254.671787 149.415724,251.28068 147.323611,249.185495 L106.09932,207.90068 Z M241.121479,124.407297 C255.49069,110.038062 255.662743,86.8376187 241.412601,72.5874525 C227.162459,58.3372863 203.962055,58.5093398 189.592553,72.8782841 C186.135767,76.3356576 186.135767,81.93977 189.592844,85.3968524 C193.049629,88.8536436 198.654023,88.8539347 202.1111,85.3968524 C209.608079,77.89986 221.599695,77.8110675 228.894345,85.1057296 C236.188995,92.4003917 236.100202,104.392028 228.603223,111.88902 C225.146146,115.346103 225.146146,120.950215 228.603223,124.407297 C232.060008,127.864089 237.664402,127.86438 241.121479,124.407297 Z" id="Combined-Shape"></path>
                <path d="M16.6362173,233.636139 C20.1507298,230.121583 25.8484193,230.120991 29.3635237,233.636139 C32.8783321,237.150991 32.8792201,242.848454 29.3638197,246.363898 C25.8493072,249.878454 20.1516177,249.879046 16.6362173,246.363602 C13.1217049,242.849046 13.1208169,237.151583 16.6362173,233.636139 Z" id="Fill-7"></path>
                <path d="M80.8116818,221.606706 C84.2865159,218.131878 89.9195157,218.130708 93.3943499,221.605535 C96.8688914,225.08007 96.8685988,230.712767 93.3931795,234.188179 L54.1883548,273.392928 C50.7132281,276.868048 45.0805208,276.869511 41.6053941,273.394391 C38.1311452,269.920149 38.1314378,264.286868 41.6068571,260.811455 L80.8116818,221.606706 Z" id="Fill-9"></path>
                <path d="M21.972892,279.57903 C25.4107031,276.141047 30.9831067,276.139889 34.4212074,279.578161 C37.8584396,283.015565 37.8610449,288.58622 34.4203389,292.027098 L15.0272166,311.421187 C11.5896949,314.85888 6.01671234,314.860038 2.57890117,311.422056 C-0.858620521,307.984363 -0.860936325,302.413997 2.5797696,298.973119 L21.972892,279.57903 Z" id="Fill-11"></path>
                <path d="M54.9727834,195.578921 C58.4105946,192.140939 63.9832877,192.14007 67.4210988,195.578053 C70.8586205,199.015746 70.8609363,204.586112 67.4202304,208.026989 L48.027108,227.421079 C44.5895863,230.858772 39.0168933,230.860219 35.5787926,227.421947 C32.1415604,223.984544 32.1389551,218.413888 35.5796611,214.973011 L54.9727834,195.578921 Z" id="Fill-14"></path>
                <path d="M86.972892,265.57903 C90.4107031,262.141047 95.9831067,262.139889 99.4212074,265.578161 C102.85844,269.015565 102.861045,274.58622 99.4203389,278.027098 L80.0272166,297.421187 C76.5896949,300.85888 71.0167123,300.860038 67.5789012,297.422056 C64.1413795,293.984363 64.1390637,288.413997 67.5797696,284.973119 L86.972892,265.57903 Z" id="Fill-16"></path>
                <path d="M106.636239,246.636161 C110.15078,243.121576 115.848517,243.120984 119.36365,246.636161 C122.878487,250.151041 122.879079,255.848256 119.36365,259.363728 C115.849109,262.878313 110.151668,262.879201 106.636239,259.363728 C103.121698,255.849144 103.12081,250.151633 106.636239,246.636161 Z" id="Fill-18"></path>
            </g>
        </g>
    </g>
</svg>