<?xml version="1.0" encoding="UTF-8"?>
<svg width="1363px" height="500px" viewBox="0 0 1363 500" version="1.1" xmlns="http://www.w3.org/2000/svg" xmlns:xlink="http://www.w3.org/1999/xlink">
    <!-- Generator: Sketch 42 (36781) - http://www.bohemiancoding.com/sketch -->
    <title>MonoBlack_Horizontal</title>
    <desc>Created with Sketch.</desc>
    <defs></defs>
    <g id="EXPORTS" stroke="none" stroke-width="1" fill="none" fill-rule="evenodd">
        <g id="MonoBlack_Horizontal" fill="#FFFFFF">
            <g id="Group" transform="translate(130.000000, 142.000000)">
                <path d="M166.036792,62.4149698 C171.224852,67.7185043 171.125344,76.3418942 165.720665,81.7465732 C163.211735,84.255504 163.211735,88.3226129 165.720665,90.8315437 C168.229385,93.3402633 172.296705,93.3404745 174.805636,90.8315437 C185.198455,80.4387248 185.357812,63.6802881 175.122048,53.3297132 L212.307338,16.1444236 C214.006016,17.8431018 215.307491,19.9347578 215.814559,22.0221882 L227.212817,68.9367648 C229.161015,75.7566197 226.678282,85.3467569 221.664646,90.3603929 L182.176928,129.848112 C180.659737,131.365302 179.690181,134.312424 180.009211,136.435772 L185.732743,174.535603 C186.784698,181.550256 182.157913,188.970142 175.40123,191.112505 L100.17535,214.963933 C97.6590242,215.760452 94.1055331,214.889774 91.8237265,212.607968 C88.905972,209.690213 88.9038592,204.963916 91.8173882,202.050387 L107.022882,186.844893 C108.537748,185.330027 108.537959,182.874761 107.020981,181.357782 L77.0574802,151.394281 L166.036832,62.4149292 Z M175.121145,53.3288001 C175.086521,53.2937903 175.051777,53.2588539 175.016914,53.2239913 C164.675049,42.8821257 147.83764,43.0069912 137.409151,53.4350584 C134.900431,55.9442005 134.900431,60.0113094 137.409362,62.5202402 C139.918082,65.0289598 143.985402,65.029171 146.494333,62.5202402 C151.935173,57.0793993 160.637941,57.0149594 165.931944,62.3089618 C165.966826,62.3438444 166.001476,62.378875 166.035894,62.4140517 L77.0565722,151.393373 L47.0930717,121.429873 C45.5760929,119.912894 43.1208268,119.913105 41.6059608,121.427971 L26.4004667,136.633465 C23.4869378,139.546994 18.7606404,139.544881 15.8428859,136.627127 C13.5610793,134.34532 12.6904011,130.791829 13.4869206,128.275504 L37.3383487,53.0496237 C39.4807115,46.292941 46.9005971,41.6661556 53.9152507,42.7181107 L92.0150818,48.4416422 C94.1384295,48.7606725 97.0855517,47.791116 98.6027418,46.2739259 L138.090461,6.78620718 C143.104097,1.77257112 152.694234,-0.710161175 159.514089,1.23803681 L206.428665,12.6362944 C208.516096,13.1433625 210.607752,14.4448373 212.30643,16.1435155 L175.121166,53.3287793 Z" id="Combined-Shape"></path>
                <path d="M11.9097904,170.060727 C14.41851,167.552007 18.4856189,167.551584 20.9947609,170.060727 C23.5036918,172.569657 23.5043256,176.636555 20.9949722,179.145908 C18.4862527,181.654628 14.4191438,181.65505 11.9097904,179.145697 C9.40107088,176.636978 9.40043705,172.57008 11.9097904,170.060727 Z" id="Fill-7"></path>
                <path d="M58.3901899,160.765323 C60.8993319,158.256181 64.9668634,158.255336 67.4760055,160.764478 C69.9849363,163.273408 69.984725,167.340729 67.4751604,169.850293 L39.1657584,198.159695 C36.656405,200.669049 32.5890848,200.670105 30.0797315,198.160752 C27.5710119,195.652032 27.5712232,191.584289 30.0807879,189.074725 L58.3901899,160.765323 Z" id="Fill-9"></path>
                <path d="M16.3460027,202.80951 C18.8551447,200.300368 22.9222536,200.299523 25.431607,202.808876 C27.9403266,205.317596 27.9422281,209.383226 25.4309732,211.89448 L11.2765891,226.048865 C8.76765829,228.557795 4.70012683,228.558641 2.19098474,226.049498 C-0.317946074,223.540568 -0.319636301,219.475149 2.19161858,216.963894 L16.3460027,202.80951 Z" id="Fill-11"></path>
                <path d="M39.7979033,142.172614 C42.3070454,139.663472 46.3743656,139.662838 48.8835077,142.17198 C51.3924385,144.680911 51.3941287,148.746329 48.8828738,151.257584 L34.7284898,165.411968 C32.2195589,167.920899 28.1522388,167.921955 25.6428854,165.412602 C23.1341659,162.903883 23.1322644,158.838253 25.6435192,156.326998 L39.7979033,142.172614 Z" id="Fill-14"></path>
                <path d="M63.249804,193.090704 C65.7589461,190.581562 69.826055,190.580717 72.3354083,193.09007 C74.8441279,195.59879 74.8460294,199.66442 72.3347745,202.175675 L58.1803904,216.330059 C55.6714596,218.83899 51.6039282,218.839835 49.0947861,216.330693 C46.5858552,213.821762 46.584165,209.756343 49.0954199,207.245088 L63.249804,193.090704 Z" id="Fill-16"></path>
                <path d="M76.9835328,179.356975 C79.4922523,176.848256 83.5593612,176.847833 86.0685033,179.356975 C88.5774341,181.865906 88.5778567,185.932593 86.0685033,188.441946 C83.5597838,190.950666 79.4928862,190.951299 76.9835328,188.441946 C74.4748133,185.933226 74.4741794,181.866329 76.9835328,179.356975 Z" id="Fill-18"></path>
            </g>
            <path d="M602.255386,257.824116 C604.154628,257.765541 605.878689,257.085359 607.324401,255.75089 C608.70506,254.364591 609.411643,252.664136 609.411643,250.715912 C609.411643,248.582984 608.70506,246.854188 607.324401,245.384758 C605.878689,244.020055 604.154628,243.311532 602.255386,243.311532 L570.648585,243.311532 C568.749343,243.370107 567.025282,244.050289 565.57957,245.384758 C564.198911,246.771057 563.492328,248.471512 563.492328,250.419737 C563.492328,252.552664 564.198911,254.28146 565.57957,255.75089 C567.025282,257.115593 568.749343,257.824116 570.648585,257.824116 L602.255386,257.824116 Z M1065.66955,204.463295 C1067.0124,202.507155 1067.68234,200.332535 1067.57501,198.022875 C1067.37455,195.745966 1066.40418,193.950232 1064.69818,192.71075 C1062.83044,191.353757 1060.79791,190.967763 1058.4977,191.427826 C1056.24145,192.020241 1054.35546,193.311352 1052.96132,195.230225 L1029.76028,227.163718 C1028.41743,229.119858 1027.74749,231.294478 1027.85482,233.604137 C1028.05528,235.881046 1029.02565,237.67678 1030.73165,238.916263 C1032.59939,240.273256 1034.63192,240.659249 1036.93213,240.199187 C1039.18838,239.606772 1041.07437,238.315661 1042.46851,236.396788 L1065.66955,204.463295 Z M458.942697,307.966574 C457.472277,306.506028 456.737079,304.70846 456.737079,302.573816 L456.737079,206.009749 L422.125843,206.009749 C420.089877,206.009749 418.393265,205.335661 417.035955,203.987465 C415.678645,202.639269 415,200.954049 415,198.931755 C415,196.909461 415.678645,195.196154 417.035955,193.791783 C418.393265,192.387412 420.089877,191.685237 422.125843,191.685237 L506.617978,191.685237 C508.653943,191.685237 510.378832,192.387412 511.792697,193.791783 C513.206561,195.196154 513.913483,196.909461 513.913483,198.931755 C513.913483,200.954049 513.206561,202.639269 511.792697,203.987465 C510.378832,205.335661 508.653943,206.009749 506.617978,206.009749 L472.176404,206.009749 L472.176404,302.573816 C472.176404,304.70846 471.412929,306.506028 469.885955,307.966574 C468.358981,309.42712 466.520985,310.157382 464.37191,310.157382 C462.222836,310.157382 460.413116,309.42712 458.942697,307.966574 Z M534.782022,307.123955 C533.311603,305.66341 532.576404,303.865842 532.576404,301.731198 L532.576404,199.437326 C532.576404,197.302682 533.311603,195.477027 534.782022,193.960306 C536.252442,192.443586 538.062162,191.685237 540.211236,191.685237 L608.246067,191.685237 C610.282033,191.685237 612.006922,192.387412 613.420787,193.791783 C614.834651,195.196154 615.541573,196.909461 615.541573,198.931755 C615.541573,200.954049 614.834651,202.639269 613.420787,203.987465 C612.006922,205.335661 610.282033,206.009749 608.246067,206.009749 L548.01573,206.009749 L548.01573,294.990251 L608.246067,294.990251 C610.282033,294.990251 612.006922,295.692426 613.420787,297.096797 C614.834651,298.501168 615.541573,300.214475 615.541573,302.236769 C615.541573,304.259063 614.834651,305.944283 613.420787,307.292479 C612.006922,308.640675 610.282033,309.314763 608.246067,309.314763 L540.211236,309.314763 C538.062162,309.314763 536.252442,308.584501 534.782022,307.123955 Z M643.960112,306.197075 C641.867593,304.118606 640.821348,301.618863 640.821348,298.697772 L640.821348,198.594708 C640.821348,196.460064 641.556547,194.634409 643.026966,193.117688 C644.497386,191.600967 646.307105,190.842618 648.45618,190.842618 C650.605254,190.842618 652.443251,191.600967 653.970225,193.117688 C655.497199,194.634409 656.260674,196.460064 656.260674,198.594708 L656.260674,293.979109 L711.740449,293.979109 C713.889524,293.979109 715.72752,294.737458 717.254494,296.254178 C718.781468,297.770899 719.544944,299.596554 719.544944,301.731198 C719.544944,303.865842 718.781468,305.66341 717.254494,307.123955 C715.72752,308.584501 713.889524,309.314763 711.740449,309.314763 L651.510112,309.314763 C648.569274,309.314763 646.052632,308.275544 643.960112,306.197075 Z M759.755056,303.247911 C750.819431,298.079826 743.919875,290.945728 739.05618,281.845404 C734.192485,272.74508 731.647567,262.296716 731.421348,250.5 C731.647567,238.703284 734.192485,228.25492 739.05618,219.154596 C743.919875,210.054272 750.819431,202.920174 759.755056,197.752089 C768.690681,192.584004 779.09657,190 790.973034,190 C802.849498,190 813.227109,192.584004 822.10618,197.752089 C830.98525,202.920174 837.884807,210.082359 842.805056,219.238858 C847.725306,228.395357 850.298501,238.815633 850.524719,250.5 C850.298501,262.184367 847.725306,272.604643 842.805056,281.761142 C837.884807,290.917641 830.98525,298.079826 822.10618,303.247911 C813.227109,308.415996 802.849498,311 790.973034,311 C779.09657,311 768.690681,308.415996 759.755056,303.247911 Z M814.55618,290.608635 C821.229621,286.564047 826.319458,281.058995 829.825843,274.093315 C833.332227,267.127635 835.085393,259.263275 835.085393,250.5 C835.085393,241.736725 833.332227,233.872365 829.825843,226.906685 C826.319458,219.941005 821.229621,214.435953 814.55618,210.391365 C807.882738,206.346776 800.021768,204.324513 790.973034,204.324513 C781.81119,204.324513 773.921943,206.346776 767.305056,210.391365 C760.688169,214.435953 755.626609,219.941005 752.120225,226.906685 C748.61384,233.872365 746.860674,241.736725 746.860674,250.5 C746.860674,259.263275 748.61384,267.127635 752.120225,274.093315 C755.626609,281.058995 760.688169,286.564047 767.305056,290.608635 C773.921943,294.653224 781.81119,296.675487 790.973034,296.675487 C800.021768,296.675487 807.882738,294.653224 814.55618,290.608635 Z M873.259551,302.910864 C871.90224,302.349115 870.771166,301.422244 869.866292,300.130223 C868.961419,298.838202 868.508989,297.461939 868.508989,296.001393 C868.508989,294.091448 869.159357,292.434315 870.460112,291.029944 C871.760868,289.625573 873.429203,288.923398 875.465169,288.923398 C876.59626,288.923398 877.670781,289.148094 878.688764,289.597493 C889.094809,294.20383 900.235896,296.506964 912.11236,296.506964 C931.906466,296.506964 941.803371,290.046954 941.803371,277.126741 C941.803371,273.756251 940.530912,270.947551 937.985955,268.700557 C935.440999,266.453564 932.302266,264.684083 928.569663,263.392061 C924.83706,262.10004 919.521008,260.555255 912.621348,258.75766 C903.459505,256.398317 896.050965,254.12327 890.395506,251.932451 C884.740047,249.741632 879.876425,246.455454 875.804494,242.073816 C871.732564,237.692179 869.696629,231.850083 869.696629,224.547354 C869.696629,218.143422 871.393241,212.329413 874.786517,207.105153 C878.179792,201.880893 883.184798,197.724017 889.801685,194.634401 C896.418572,191.544785 904.364373,190 913.639326,190 C926.081336,190 937.33553,191.853742 947.402247,195.561281 C950.569304,196.684778 952.152809,198.931738 952.152809,202.302228 C952.152809,204.099823 951.530718,205.728869 950.286517,207.189415 C949.042316,208.649961 947.402257,209.380223 945.366292,209.380223 C944.687637,209.380223 943.782777,209.155527 942.651685,208.706128 C933.829169,205.672687 924.724017,204.155989 915.335955,204.155989 C906.40033,204.155989 899.133174,205.841209 893.53427,209.211699 C887.935365,212.58219 885.135955,217.300805 885.135955,223.367688 C885.135955,227.412276 886.464968,230.698455 889.123034,233.226323 C891.781099,235.754191 895.11777,237.720281 899.133146,239.124652 C903.148522,240.529023 908.605958,242.017634 915.505618,243.590529 C924.441243,245.725173 931.651845,247.859785 937.13764,249.994429 C942.623436,252.129073 947.317396,255.443339 951.219663,259.937326 C955.12193,264.431313 957.073034,270.498105 957.073034,278.137883 C957.073034,284.429465 955.263314,290.074952 951.64382,295.074513 C948.024326,300.074073 942.93449,303.978166 936.374157,306.786908 C929.813825,309.59565 922.235624,311 913.639326,311 C899.27446,311 885.81467,308.303648 873.259551,302.910864 Z M1013.14663,307.966574 C1011.61966,306.506028 1010.85618,304.70846 1010.85618,302.573816 L1010.85618,259.600279 L970.306742,203.144847 C969.401868,201.684301 968.949438,200.167603 968.949438,198.594708 C968.949438,196.460064 969.65636,194.634409 971.070225,193.117688 C972.484089,191.600967 974.265532,190.842618 976.414607,190.842618 C979.242336,190.842618 981.504486,192.13462 983.201124,194.718663 L1026.29551,256.934468 L1026.29551,302.573816 C1026.29551,304.70846 1025.56031,306.506028 1024.08989,307.966574 C1022.61947,309.42712 1020.80975,310.157382 1018.66067,310.157382 C1016.5116,310.157382 1014.6736,309.42712 1013.14663,307.966574 Z M1086.18652,302.910864 C1084.82921,302.349115 1083.69813,301.422244 1082.79326,300.130223 C1081.88838,298.838202 1081.43596,297.461939 1081.43596,296.001393 C1081.43596,294.091448 1082.08632,292.434315 1083.38708,291.029944 C1084.68783,289.625573 1086.35617,288.923398 1088.39213,288.923398 C1089.52323,288.923398 1090.59775,289.148094 1091.61573,289.597493 C1102.02177,294.20383 1113.16286,296.506964 1125.03933,296.506964 C1144.83343,296.506964 1154.73034,290.046954 1154.73034,277.126741 C1154.73034,273.756251 1153.45788,270.947551 1150.91292,268.700557 C1148.36796,266.453564 1145.22923,264.684083 1141.49663,263.392061 C1137.76403,262.10004 1132.44797,260.555255 1125.54831,258.75766 C1116.38647,256.398317 1108.97793,254.12327 1103.32247,251.932451 C1097.66701,249.741632 1092.80339,246.455454 1088.73146,242.073816 C1084.65953,237.692179 1082.6236,231.850083 1082.6236,224.547354 C1082.6236,218.143422 1084.32021,212.329413 1087.71348,207.105153 C1091.10676,201.880893 1096.11176,197.724017 1102.72865,194.634401 C1109.34554,191.544785 1117.29134,190 1126.56629,190 C1139.0083,190 1150.2625,191.853742 1160.32921,195.561281 C1163.49627,196.684778 1165.07978,198.931738 1165.07978,202.302228 C1165.07978,204.099823 1164.45768,205.728869 1163.21348,207.189415 C1161.96928,208.649961 1160.32922,209.380223 1158.29326,209.380223 C1157.6146,209.380223 1156.70974,209.155527 1155.57865,208.706128 C1146.75614,205.672687 1137.65098,204.155989 1128.26292,204.155989 C1119.3273,204.155989 1112.06014,205.841209 1106.46124,209.211699 C1100.86233,212.58219 1098.06292,217.300805 1098.06292,223.367688 C1098.06292,227.412276 1099.39193,230.698455 1102.05,233.226323 C1104.70807,235.754191 1108.04474,237.720281 1112.06011,239.124652 C1116.07549,240.529023 1121.53292,242.017634 1128.43258,243.590529 C1137.36821,245.725173 1144.57881,247.859785 1150.06461,249.994429 C1155.5504,252.129073 1160.24436,255.443339 1164.14663,259.937326 C1168.0489,264.431313 1170,270.498105 1170,278.137883 C1170,284.429465 1168.19028,290.074952 1164.57079,295.074513 C1160.95129,300.074073 1155.86146,303.978166 1149.30112,306.786908 C1142.74079,309.59565 1135.16259,311 1126.56629,311 C1112.20143,311 1098.74164,308.303648 1086.18652,302.910864 Z" id="Combined-Shape-Copy"></path>
        </g>
    </g>
</svg>