<?xml version="1.0" encoding="UTF-8"?>
<svg width="1363px" height="500px" viewBox="0 0 1363 500" version="1.1" xmlns="http://www.w3.org/2000/svg" xmlns:xlink="http://www.w3.org/1999/xlink">
    <!-- Generator: Sketch 42 (36781) - http://www.bohemiancoding.com/sketch -->
    <title>White_Horizontal</title>
    <desc>Created with Sketch.</desc>
    <defs></defs>
    <g id="EXPORTS" stroke="none" stroke-width="1" fill="none" fill-rule="evenodd">
        <g id="White_Horizontal">
            <g id="Group-2" transform="translate(130.000000, 142.000000)">
                <path d="M472.255386,115.824116 C474.154628,115.765541 475.878689,115.085359 477.324401,113.75089 C478.70506,112.364591 479.411643,110.664136 479.411643,108.715912 C479.411643,106.582984 478.70506,104.854188 477.324401,103.384758 C475.878689,102.020055 474.154628,101.311532 472.255386,101.311532 L440.648585,101.311532 C438.749343,101.370107 437.025282,102.050289 435.57957,103.384758 C434.198911,104.771057 433.492328,106.471512 433.492328,108.419737 C433.492328,110.552664 434.198911,112.28146 435.57957,113.75089 C437.025282,115.115593 438.749343,115.824116 440.648585,115.824116 L472.255386,115.824116 Z M935.669551,62.4632946 C937.012401,60.507155 937.682337,58.3325349 937.575011,56.0228753 C937.374547,53.7459663 936.404178,51.9502323 934.698177,50.7107498 C932.830437,49.3537571 930.797915,48.9677635 928.497704,49.4278255 C926.241446,50.0202409 924.355463,51.3113515 922.96132,53.2302249 L899.760279,85.1637182 C898.417429,87.1198577 897.747493,89.2944779 897.854819,91.6041375 C898.055283,93.8810465 899.025652,95.6767805 900.731653,96.9162629 C902.599393,98.2732556 904.631915,98.6592493 906.932126,98.1991872 C909.188384,97.6067718 911.074366,96.3156612 912.46851,94.3967879 L935.669551,62.4632946 Z M328.942697,165.966574 C327.472277,164.506028 326.737079,162.70846 326.737079,160.573816 L326.737079,64.0097493 L292.125843,64.0097493 C290.089877,64.0097493 288.393265,63.3356613 287.035955,61.9874652 C285.678645,60.639269 285,58.9540491 285,56.9317549 C285,54.9094606 285.678645,53.1961537 287.035955,51.7917827 C288.393265,50.3874117 290.089877,49.6852368 292.125843,49.6852368 L376.617978,49.6852368 C378.653943,49.6852368 380.378832,50.3874117 381.792697,51.7917827 C383.206561,53.1961537 383.913483,54.9094606 383.913483,56.9317549 C383.913483,58.9540491 383.206561,60.639269 381.792697,61.9874652 C380.378832,63.3356613 378.653943,64.0097493 376.617978,64.0097493 L342.176404,64.0097493 L342.176404,160.573816 C342.176404,162.70846 341.412929,164.506028 339.885955,165.966574 C338.358981,167.42712 336.520985,168.157382 334.37191,168.157382 C332.222836,168.157382 330.413116,167.42712 328.942697,165.966574 Z M404.782022,165.123955 C403.311603,163.66341 402.576404,161.865842 402.576404,159.731198 L402.576404,57.4373259 C402.576404,55.302682 403.311603,53.4770271 404.782022,51.9603064 C406.252442,50.4435857 408.062162,49.6852368 410.211236,49.6852368 L478.246067,49.6852368 C480.282033,49.6852368 482.006922,50.3874117 483.420787,51.7917827 C484.834651,53.1961537 485.541573,54.9094606 485.541573,56.9317549 C485.541573,58.9540491 484.834651,60.639269 483.420787,61.9874652 C482.006922,63.3356613 480.282033,64.0097493 478.246067,64.0097493 L418.01573,64.0097493 L418.01573,152.990251 L478.246067,152.990251 C480.282033,152.990251 482.006922,153.692426 483.420787,155.096797 C484.834651,156.501168 485.541573,158.214475 485.541573,160.236769 C485.541573,162.259063 484.834651,163.944283 483.420787,165.292479 C482.006922,166.640675 480.282033,167.314763 478.246067,167.314763 L410.211236,167.314763 C408.062162,167.314763 406.252442,166.584501 404.782022,165.123955 Z M513.960112,164.197075 C511.867593,162.118606 510.821348,159.618863 510.821348,156.697772 L510.821348,56.5947075 C510.821348,54.4600636 511.556547,52.6344087 513.026966,51.117688 C514.497386,49.6009673 516.307105,48.8426184 518.45618,48.8426184 C520.605254,48.8426184 522.443251,49.6009673 523.970225,51.117688 C525.497199,52.6344087 526.260674,54.4600636 526.260674,56.5947075 L526.260674,151.979109 L581.740449,151.979109 C583.889524,151.979109 585.72752,152.737458 587.254494,154.254178 C588.781468,155.770899 589.544944,157.596554 589.544944,159.731198 C589.544944,161.865842 588.781468,163.66341 587.254494,165.123955 C585.72752,166.584501 583.889524,167.314763 581.740449,167.314763 L521.510112,167.314763 C518.569274,167.314763 516.052632,166.275544 513.960112,164.197075 Z M629.755056,161.247911 C620.819431,156.079826 613.919875,148.945728 609.05618,139.845404 C604.192485,130.74508 601.647567,120.296716 601.421348,108.5 C601.647567,96.7032836 604.192485,86.2549202 609.05618,77.1545961 C613.919875,68.054272 620.819431,60.9201744 629.755056,55.7520891 C638.690681,50.5840039 649.09657,48 660.973034,48 C672.849498,48 683.227109,50.5840039 692.10618,55.7520891 C700.98525,60.9201744 707.884807,68.082359 712.805056,77.2388579 C717.725306,86.3953568 720.298501,96.8156333 720.524719,108.5 C720.298501,120.184367 717.725306,130.604643 712.805056,139.761142 C707.884807,148.917641 700.98525,156.079826 692.10618,161.247911 C683.227109,166.415996 672.849498,169 660.973034,169 C649.09657,169 638.690681,166.415996 629.755056,161.247911 Z M684.55618,148.608635 C691.229621,144.564047 696.319458,139.058995 699.825843,132.093315 C703.332227,125.127635 705.085393,117.263275 705.085393,108.5 C705.085393,99.736725 703.332227,91.8723654 699.825843,84.9066852 C696.319458,77.9410051 691.229621,72.4359534 684.55618,68.3913649 C677.882738,64.3467764 670.021768,62.3245125 660.973034,62.3245125 C651.81119,62.3245125 643.921943,64.3467764 637.305056,68.3913649 C630.688169,72.4359534 625.626609,77.9410051 622.120225,84.9066852 C618.61384,91.8723654 616.860674,99.736725 616.860674,108.5 C616.860674,117.263275 618.61384,125.127635 622.120225,132.093315 C625.626609,139.058995 630.688169,144.564047 637.305056,148.608635 C643.921943,152.653224 651.81119,154.675487 660.973034,154.675487 C670.021768,154.675487 677.882738,152.653224 684.55618,148.608635 Z M743.259551,160.910864 C741.90224,160.349115 740.771166,159.422244 739.866292,158.130223 C738.961419,156.838202 738.508989,155.461939 738.508989,154.001393 C738.508989,152.091448 739.159357,150.434315 740.460112,149.029944 C741.760868,147.625573 743.429203,146.923398 745.465169,146.923398 C746.59626,146.923398 747.670781,147.148094 748.688764,147.597493 C759.094809,152.20383 770.235896,154.506964 782.11236,154.506964 C801.906466,154.506964 811.803371,148.046954 811.803371,135.126741 C811.803371,131.756251 810.530912,128.947551 807.985955,126.700557 C805.440999,124.453564 802.302266,122.684083 798.569663,121.392061 C794.83706,120.10004 789.521008,118.555255 782.621348,116.75766 C773.459505,114.398317 766.050965,112.12327 760.395506,109.932451 C754.740047,107.741632 749.876425,104.455454 745.804494,100.073816 C741.732564,95.6921786 739.696629,89.8500829 739.696629,82.5473538 C739.696629,76.143422 741.393241,70.3294133 744.786517,65.1051532 C748.179792,59.8808931 753.184798,55.7240173 759.801685,52.6344011 C766.418572,49.5447849 774.364373,48 783.639326,48 C796.081336,48 807.33553,49.8537419 817.402247,53.5612813 C820.569304,54.6847781 822.152809,56.931738 822.152809,60.3022284 C822.152809,62.0998233 821.530718,63.7288692 820.286517,65.189415 C819.042316,66.6499609 817.402257,67.3802228 815.366292,67.3802228 C814.687637,67.3802228 813.782777,67.1555269 812.651685,66.7061281 C803.829169,63.6726868 794.724017,62.1559889 785.335955,62.1559889 C776.40033,62.1559889 769.133174,63.8412088 763.53427,67.2116992 C757.935365,70.5821896 755.135955,75.3008053 755.135955,81.367688 C755.135955,85.4122765 756.464968,88.6984553 759.123034,91.2263231 C761.781099,93.7541909 765.11777,95.7202808 769.133146,97.1246518 C773.148522,98.5290228 778.605958,100.017634 785.505618,101.590529 C794.441243,103.725173 801.651845,105.859785 807.13764,107.994429 C812.623436,110.129073 817.317396,113.443339 821.219663,117.937326 C825.12193,122.431313 827.073034,128.498105 827.073034,136.137883 C827.073034,142.429465 825.263314,148.074952 821.64382,153.074513 C818.024326,158.074073 812.93449,161.978166 806.374157,164.786908 C799.813825,167.59565 792.235624,169 783.639326,169 C769.27446,169 755.81467,166.303648 743.259551,160.910864 Z M883.146629,165.966574 C881.619655,164.506028 880.85618,162.70846 880.85618,160.573816 L880.85618,117.600279 L840.306742,61.1448468 C839.401868,59.684301 838.949438,58.167603 838.949438,56.5947075 C838.949438,54.4600636 839.65636,52.6344087 841.070225,51.117688 C842.484089,49.6009673 844.265532,48.8426184 846.414607,48.8426184 C849.242336,48.8426184 851.504486,50.1346203 853.201124,52.718663 L896.295506,114.934468 L896.295506,160.573816 C896.295506,162.70846 895.560307,164.506028 894.089888,165.966574 C892.619468,167.42712 890.809749,168.157382 888.660674,168.157382 C886.5116,168.157382 884.673603,167.42712 883.146629,165.966574 Z M956.186517,160.910864 C954.829207,160.349115 953.698132,159.422244 952.793258,158.130223 C951.888385,156.838202 951.435955,155.461939 951.435955,154.001393 C951.435955,152.091448 952.086323,150.434315 953.387079,149.029944 C954.687834,147.625573 956.35617,146.923398 958.392135,146.923398 C959.523227,146.923398 960.597748,147.148094 961.61573,147.597493 C972.021775,152.20383 983.162862,154.506964 995.039326,154.506964 C1014.83343,154.506964 1024.73034,148.046954 1024.73034,135.126741 C1024.73034,131.756251 1023.45788,128.947551 1020.91292,126.700557 C1018.36796,124.453564 1015.22923,122.684083 1011.49663,121.392061 C1007.76403,120.10004 1002.44797,118.555255 995.548315,116.75766 C986.386471,114.398317 978.977931,112.12327 973.322472,109.932451 C967.667013,107.741632 962.803391,104.455454 958.731461,100.073816 C954.65953,95.6921786 952.623596,89.8500829 952.623596,82.5473538 C952.623596,76.143422 954.320208,70.3294133 957.713483,65.1051532 C961.106759,59.8808931 966.111765,55.7240173 972.728652,52.6344011 C979.345539,49.5447849 987.291339,48 996.566292,48 C1009.0083,48 1020.2625,49.8537419 1030.32921,53.5612813 C1033.49627,54.6847781 1035.07978,56.931738 1035.07978,60.3022284 C1035.07978,62.0998233 1034.45768,63.7288692 1033.21348,65.189415 C1031.96928,66.6499609 1030.32922,67.3802228 1028.29326,67.3802228 C1027.6146,67.3802228 1026.70974,67.1555269 1025.57865,66.7061281 C1016.75614,63.6726868 1007.65098,62.1559889 998.262921,62.1559889 C989.327296,62.1559889 982.06014,63.8412088 976.461236,67.2116992 C970.862332,70.5821896 968.062921,75.3008053 968.062921,81.367688 C968.062921,85.4122765 969.391934,88.6984553 972.05,91.2263231 C974.708066,93.7541909 978.044736,95.7202808 982.060112,97.1246518 C986.075488,98.5290228 991.532924,100.017634 998.432584,101.590529 C1007.36821,103.725173 1014.57881,105.859785 1020.06461,107.994429 C1025.5504,110.129073 1030.24436,113.443339 1034.14663,117.937326 C1038.0489,122.431313 1040,128.498105 1040,136.137883 C1040,142.429465 1038.19028,148.074952 1034.57079,153.074513 C1030.95129,158.074073 1025.86146,161.978166 1019.30112,164.786908 C1012.74079,167.59565 1005.16259,169 996.566292,169 C982.201426,169 968.741636,166.303648 956.186517,160.910864 Z" id="Combined-Shape-Copy" fill="#496084"></path>
                <g id="Group">
                    <path d="M175.40123,191.112505 L100.17535,214.963933 C97.6590242,215.760452 94.1055331,214.889774 91.8237265,212.607968 C88.905972,209.690213 88.9038592,204.963916 91.8173882,202.050387 L107.022882,186.844893 C108.537748,185.330027 108.537959,182.874761 107.020981,181.357782 L77.0574802,151.394281 L212.307338,16.1444236 C214.006016,17.8431018 215.307491,19.9347578 215.814559,22.0221882 L227.212817,68.9367648 C229.161015,75.7566197 226.678282,85.3467569 221.664646,90.3603929 L182.176928,129.848112 C180.659737,131.365302 179.690181,134.312424 180.009211,136.435772 L185.732743,174.535603 C186.784698,181.550256 182.157913,188.970142 175.40123,191.112505 Z" id="Fill-1" fill="#8B99B3"></path>
                    <path d="M37.3383487,53.0496237 C39.4807115,46.292941 46.9005971,41.6661556 53.9152507,42.7181107 L92.0150818,48.4416422 C94.1384295,48.7606725 97.0855517,47.791116 98.6027418,46.2739259 L138.090461,6.78620718 C143.104097,1.77257112 152.694234,-0.710161175 159.514089,1.23803681 L206.428665,12.6362944 C208.516096,13.1433625 210.607752,14.4448373 212.30643,16.1435155 L77.0565722,151.393373 L47.0930717,121.429873 C45.5760929,119.912894 43.1208268,119.913105 41.6059608,121.427971 L26.4004667,136.633465 C23.4869378,139.546994 18.7606404,139.544881 15.8428859,136.627127 C13.5610793,134.34532 12.6904011,130.791829 13.4869206,128.275504 L37.3383487,53.0496237 Z" id="Fill-4" fill="#CDD5E3"></path>
                    <path d="M11.9097904,170.060727 C14.41851,167.552007 18.4856189,167.551584 20.9947609,170.060727 C23.5036918,172.569657 23.5043256,176.636555 20.9949722,179.145908 C18.4862527,181.654628 14.4191438,181.65505 11.9097904,179.145697 C9.40107088,176.636978 9.40043705,172.57008 11.9097904,170.060727 Z" id="Fill-7" fill="#6CC4B7"></path>
                    <path d="M58.3901899,160.765323 C60.8993319,158.256181 64.9668634,158.255336 67.4760055,160.764478 C69.9849363,163.273408 69.984725,167.340729 67.4751604,169.850293 L39.1657584,198.159695 C36.656405,200.669049 32.5890848,200.670105 30.0797315,198.160752 C27.5710119,195.652032 27.5712232,191.584289 30.0807879,189.074725 L58.3901899,160.765323 Z" id="Fill-9" fill="#FFBD32"></path>
                    <path d="M16.3460027,202.80951 C18.8551447,200.300368 22.9222536,200.299523 25.431607,202.808876 C27.9403266,205.317596 27.9422281,209.383226 25.4309732,211.89448 L11.2765891,226.048865 C8.76765829,228.557795 4.70012683,228.558641 2.19098474,226.049498 C-0.317946074,223.540568 -0.319636301,219.475149 2.19161858,216.963894 L16.3460027,202.80951 Z" id="Fill-11" fill="#90CC43"></path>
                    <path d="M39.7979033,142.172614 C42.3070454,139.663472 46.3743656,139.662838 48.8835077,142.17198 C51.3924385,144.680911 51.3941287,148.746329 48.8828738,151.257584 L34.7284898,165.411968 C32.2195589,167.920899 28.1522388,167.921955 25.6428854,165.412602 C23.1341659,162.903883 23.1322644,158.838253 25.6435192,156.326998 L39.7979033,142.172614 Z" id="Fill-14" fill="#FB672B"></path>
                    <path d="M63.249804,193.090704 C65.7589461,190.581562 69.826055,190.580717 72.3354083,193.09007 C74.8441279,195.59879 74.8460294,199.66442 72.3347745,202.175675 L58.1803904,216.330059 C55.6714596,218.83899 51.6039282,218.839835 49.0947861,216.330693 C46.5858552,213.821762 46.584165,209.756343 49.0954199,207.245088 L63.249804,193.090704 Z" id="Fill-16" fill="#01BEE3"></path>
                    <path d="M76.9835328,179.356975 C79.4922523,176.848256 83.5593612,176.847833 86.0685033,179.356975 C88.5774341,181.865906 88.5778567,185.932593 86.0685033,188.441946 C83.5597838,190.950666 79.4928862,190.951299 76.9835328,188.441946 C74.4748133,185.933226 74.4741794,181.866329 76.9835328,179.356975 Z" id="Fill-18" fill="#AA52E7"></path>
                    <path d="M174.805636,90.8315437 C172.296705,93.3404745 168.229385,93.3402633 165.720665,90.8315437 C163.211735,88.3226129 163.211735,84.255504 165.720665,81.7465732 C171.161506,76.3057322 171.225946,67.6029643 165.931944,62.3089618 C160.637941,57.0149594 151.935173,57.0793993 146.494333,62.5202402 C143.985402,65.029171 139.918082,65.0289598 137.409362,62.5202402 C134.900431,60.0113094 134.900431,55.9442005 137.409151,53.4350584 C147.83764,43.0069912 164.675049,42.8821257 175.016914,53.2239913 C185.35878,63.565857 185.233914,80.4032652 174.805636,90.8315437 Z" id="Fill-20" fill="#FFFFFF"></path>
                </g>
            </g>
        </g>
    </g>
</svg>