<?xml version="1.0" encoding="UTF-8"?>
<svg width="1029px" height="722px" viewBox="0 0 1029 722" version="1.1" xmlns="http://www.w3.org/2000/svg" xmlns:xlink="http://www.w3.org/1999/xlink">
    <!-- Generator: Sketch 42 (36781) - http://www.bohemiancoding.com/sketch -->
    <title>White_Vertical</title>
    <desc>Created with Sketch.</desc>
    <defs></defs>
    <g id="EXPORTS" stroke="none" stroke-width="1" fill="none" fill-rule="evenodd">
        <g id="White_Vertical">
            <g id="Group-2" transform="translate(137.000000, 141.000000)">
                <path d="M187.255386,338.824116 C189.154628,338.765541 190.878689,338.085359 192.324401,336.75089 C193.70506,335.364591 194.411643,333.664136 194.411643,331.715912 C194.411643,329.582984 193.70506,327.854188 192.324401,326.384758 C190.878689,325.020055 189.154628,324.311532 187.255386,324.311532 L155.648585,324.311532 C153.749343,324.370107 152.025282,325.050289 150.57957,326.384758 C149.198911,327.771057 148.492328,329.471512 148.492328,331.419737 C148.492328,333.552664 149.198911,335.28146 150.57957,336.75089 C152.025282,338.115593 153.749343,338.824116 155.648585,338.824116 L187.255386,338.824116 Z M650.669551,285.463295 C652.012401,283.507155 652.682337,281.332535 652.575011,279.022875 C652.374547,276.745966 651.404178,274.950232 649.698177,273.71075 C647.830437,272.353757 645.797915,271.967763 643.497704,272.427826 C641.241446,273.020241 639.355463,274.311352 637.96132,276.230225 L614.760279,308.163718 C613.417429,310.119858 612.747493,312.294478 612.854819,314.604137 C613.055283,316.881046 614.025652,318.67678 615.731653,319.916263 C617.599393,321.273256 619.631915,321.659249 621.932126,321.199187 C624.188384,320.606772 626.074366,319.315661 627.46851,317.396788 L650.669551,285.463295 Z M43.9426966,388.966574 C42.4722773,387.506028 41.7370787,385.70846 41.7370787,383.573816 L41.7370787,287.009749 L7.1258427,287.009749 C5.08987746,287.009749 3.39326521,286.335661 2.03595506,284.987465 C0.678644899,283.639269 0,281.954049 0,279.931755 C0,277.909461 0.678644899,276.196154 2.03595506,274.791783 C3.39326521,273.387412 5.08987746,272.685237 7.1258427,272.685237 L91.6179775,272.685237 C93.6539428,272.685237 95.3788319,273.387412 96.7926966,274.791783 C98.2065614,276.196154 98.9134831,277.909461 98.9134831,279.931755 C98.9134831,281.954049 98.2065614,283.639269 96.7926966,284.987465 C95.3788319,286.335661 93.6539428,287.009749 91.6179775,287.009749 L57.1764045,287.009749 L57.1764045,383.573816 C57.1764045,385.70846 56.412929,387.506028 54.8859551,388.966574 C53.3589811,390.42712 51.5209845,391.157382 49.3719101,391.157382 C47.2228357,391.157382 45.413116,390.42712 43.9426966,388.966574 Z M119.782022,388.123955 C118.311603,386.66341 117.576404,384.865842 117.576404,382.731198 L117.576404,280.437326 C117.576404,278.302682 118.311603,276.477027 119.782022,274.960306 C121.252442,273.443586 123.062162,272.685237 125.211236,272.685237 L193.246067,272.685237 C195.282033,272.685237 197.006922,273.387412 198.420787,274.791783 C199.834651,276.196154 200.541573,277.909461 200.541573,279.931755 C200.541573,281.954049 199.834651,283.639269 198.420787,284.987465 C197.006922,286.335661 195.282033,287.009749 193.246067,287.009749 L133.01573,287.009749 L133.01573,375.990251 L193.246067,375.990251 C195.282033,375.990251 197.006922,376.692426 198.420787,378.096797 C199.834651,379.501168 200.541573,381.214475 200.541573,383.236769 C200.541573,385.259063 199.834651,386.944283 198.420787,388.292479 C197.006922,389.640675 195.282033,390.314763 193.246067,390.314763 L125.211236,390.314763 C123.062162,390.314763 121.252442,389.584501 119.782022,388.123955 Z M228.960112,387.197075 C226.867593,385.118606 225.821348,382.618863 225.821348,379.697772 L225.821348,279.594708 C225.821348,277.460064 226.556547,275.634409 228.026966,274.117688 C229.497386,272.600967 231.307105,271.842618 233.45618,271.842618 C235.605254,271.842618 237.443251,272.600967 238.970225,274.117688 C240.497199,275.634409 241.260674,277.460064 241.260674,279.594708 L241.260674,374.979109 L296.740449,374.979109 C298.889524,374.979109 300.72752,375.737458 302.254494,377.254178 C303.781468,378.770899 304.544944,380.596554 304.544944,382.731198 C304.544944,384.865842 303.781468,386.66341 302.254494,388.123955 C300.72752,389.584501 298.889524,390.314763 296.740449,390.314763 L236.510112,390.314763 C233.569274,390.314763 231.052632,389.275544 228.960112,387.197075 Z M344.755056,384.247911 C335.819431,379.079826 328.919875,371.945728 324.05618,362.845404 C319.192485,353.74508 316.647567,343.296716 316.421348,331.5 C316.647567,319.703284 319.192485,309.25492 324.05618,300.154596 C328.919875,291.054272 335.819431,283.920174 344.755056,278.752089 C353.690681,273.584004 364.09657,271 375.973034,271 C387.849498,271 398.227109,273.584004 407.10618,278.752089 C415.98525,283.920174 422.884807,291.082359 427.805056,300.238858 C432.725306,309.395357 435.298501,319.815633 435.524719,331.5 C435.298501,343.184367 432.725306,353.604643 427.805056,362.761142 C422.884807,371.917641 415.98525,379.079826 407.10618,384.247911 C398.227109,389.415996 387.849498,392 375.973034,392 C364.09657,392 353.690681,389.415996 344.755056,384.247911 Z M399.55618,371.608635 C406.229621,367.564047 411.319458,362.058995 414.825843,355.093315 C418.332227,348.127635 420.085393,340.263275 420.085393,331.5 C420.085393,322.736725 418.332227,314.872365 414.825843,307.906685 C411.319458,300.941005 406.229621,295.435953 399.55618,291.391365 C392.882738,287.346776 385.021768,285.324513 375.973034,285.324513 C366.81119,285.324513 358.921943,287.346776 352.305056,291.391365 C345.688169,295.435953 340.626609,300.941005 337.120225,307.906685 C333.61384,314.872365 331.860674,322.736725 331.860674,331.5 C331.860674,340.263275 333.61384,348.127635 337.120225,355.093315 C340.626609,362.058995 345.688169,367.564047 352.305056,371.608635 C358.921943,375.653224 366.81119,377.675487 375.973034,377.675487 C385.021768,377.675487 392.882738,375.653224 399.55618,371.608635 Z M458.259551,383.910864 C456.90224,383.349115 455.771166,382.422244 454.866292,381.130223 C453.961419,379.838202 453.508989,378.461939 453.508989,377.001393 C453.508989,375.091448 454.159357,373.434315 455.460112,372.029944 C456.760868,370.625573 458.429203,369.923398 460.465169,369.923398 C461.59626,369.923398 462.670781,370.148094 463.688764,370.597493 C474.094809,375.20383 485.235896,377.506964 497.11236,377.506964 C516.906466,377.506964 526.803371,371.046954 526.803371,358.126741 C526.803371,354.756251 525.530912,351.947551 522.985955,349.700557 C520.440999,347.453564 517.302266,345.684083 513.569663,344.392061 C509.83706,343.10004 504.521008,341.555255 497.621348,339.75766 C488.459505,337.398317 481.050965,335.12327 475.395506,332.932451 C469.740047,330.741632 464.876425,327.455454 460.804494,323.073816 C456.732564,318.692179 454.696629,312.850083 454.696629,305.547354 C454.696629,299.143422 456.393241,293.329413 459.786517,288.105153 C463.179792,282.880893 468.184798,278.724017 474.801685,275.634401 C481.418572,272.544785 489.364373,271 498.639326,271 C511.081336,271 522.33553,272.853742 532.402247,276.561281 C535.569304,277.684778 537.152809,279.931738 537.152809,283.302228 C537.152809,285.099823 536.530718,286.728869 535.286517,288.189415 C534.042316,289.649961 532.402257,290.380223 530.366292,290.380223 C529.687637,290.380223 528.782777,290.155527 527.651685,289.706128 C518.829169,286.672687 509.724017,285.155989 500.335955,285.155989 C491.40033,285.155989 484.133174,286.841209 478.53427,290.211699 C472.935365,293.58219 470.135955,298.300805 470.135955,304.367688 C470.135955,308.412276 471.464968,311.698455 474.123034,314.226323 C476.781099,316.754191 480.11777,318.720281 484.133146,320.124652 C488.148522,321.529023 493.605958,323.017634 500.505618,324.590529 C509.441243,326.725173 516.651845,328.859785 522.13764,330.994429 C527.623436,333.129073 532.317396,336.443339 536.219663,340.937326 C540.12193,345.431313 542.073034,351.498105 542.073034,359.137883 C542.073034,365.429465 540.263314,371.074952 536.64382,376.074513 C533.024326,381.074073 527.93449,384.978166 521.374157,387.786908 C514.813825,390.59565 507.235624,392 498.639326,392 C484.27446,392 470.81467,389.303648 458.259551,383.910864 Z M598.146629,388.966574 C596.619655,387.506028 595.85618,385.70846 595.85618,383.573816 L595.85618,340.600279 L555.306742,284.144847 C554.401868,282.684301 553.949438,281.167603 553.949438,279.594708 C553.949438,277.460064 554.65636,275.634409 556.070225,274.117688 C557.484089,272.600967 559.265532,271.842618 561.414607,271.842618 C564.242336,271.842618 566.504486,273.13462 568.201124,275.718663 L611.295506,337.934468 L611.295506,383.573816 C611.295506,385.70846 610.560307,387.506028 609.089888,388.966574 C607.619468,390.42712 605.809749,391.157382 603.660674,391.157382 C601.5116,391.157382 599.673603,390.42712 598.146629,388.966574 Z M671.186517,383.910864 C669.829207,383.349115 668.698132,382.422244 667.793258,381.130223 C666.888385,379.838202 666.435955,378.461939 666.435955,377.001393 C666.435955,375.091448 667.086323,373.434315 668.387079,372.029944 C669.687834,370.625573 671.35617,369.923398 673.392135,369.923398 C674.523227,369.923398 675.597748,370.148094 676.61573,370.597493 C687.021775,375.20383 698.162862,377.506964 710.039326,377.506964 C729.833432,377.506964 739.730337,371.046954 739.730337,358.126741 C739.730337,354.756251 738.457878,351.947551 735.912921,349.700557 C733.367965,347.453564 730.229232,345.684083 726.496629,344.392061 C722.764026,343.10004 717.447975,341.555255 710.548315,339.75766 C701.386471,337.398317 693.977931,335.12327 688.322472,332.932451 C682.667013,330.741632 677.803391,327.455454 673.731461,323.073816 C669.65953,318.692179 667.623596,312.850083 667.623596,305.547354 C667.623596,299.143422 669.320208,293.329413 672.713483,288.105153 C676.106759,282.880893 681.111765,278.724017 687.728652,275.634401 C694.345539,272.544785 702.291339,271 711.566292,271 C724.008302,271 735.262496,272.853742 745.329213,276.561281 C748.496271,277.684778 750.079775,279.931738 750.079775,283.302228 C750.079775,285.099823 749.457684,286.728869 748.213483,288.189415 C746.969282,289.649961 745.329224,290.380223 743.293258,290.380223 C742.614603,290.380223 741.709743,290.155527 740.578652,289.706128 C731.756136,286.672687 722.650983,285.155989 713.262921,285.155989 C704.327296,285.155989 697.06014,286.841209 691.461236,290.211699 C685.862332,293.58219 683.062921,298.300805 683.062921,304.367688 C683.062921,308.412276 684.391934,311.698455 687.05,314.226323 C689.708066,316.754191 693.044736,318.720281 697.060112,320.124652 C701.075488,321.529023 706.532924,323.017634 713.432584,324.590529 C722.368209,326.725173 729.578812,328.859785 735.064607,330.994429 C740.550402,333.129073 745.244363,336.443339 749.146629,340.937326 C753.048896,345.431313 755,351.498105 755,359.137883 C755,365.429465 753.19028,371.074952 749.570787,376.074513 C745.951293,381.074073 740.861456,384.978166 734.301124,387.786908 C727.740791,390.59565 720.16259,392 711.566292,392 C697.201426,392 683.741636,389.303648 671.186517,383.910864 Z" id="Combined-Shape-Copy" fill="#496084"></path>
                <g id="Group" transform="translate(258.000000, 0.000000)">
                    <path d="M175.40123,191.112505 L100.17535,214.963933 C97.6590242,215.760452 94.1055331,214.889774 91.8237265,212.607968 C88.905972,209.690213 88.9038592,204.963916 91.8173882,202.050387 L107.022882,186.844893 C108.537748,185.330027 108.537959,182.874761 107.020981,181.357782 L77.0574802,151.394281 L212.307338,16.1444236 C214.006016,17.8431018 215.307491,19.9347578 215.814559,22.0221882 L227.212817,68.9367648 C229.161015,75.7566197 226.678282,85.3467569 221.664646,90.3603929 L182.176928,129.848112 C180.659737,131.365302 179.690181,134.312424 180.009211,136.435772 L185.732743,174.535603 C186.784698,181.550256 182.157913,188.970142 175.40123,191.112505 Z" id="Fill-1" fill="#8B99B3"></path>
                    <path d="M37.3383487,53.0496237 C39.4807115,46.292941 46.9005971,41.6661556 53.9152507,42.7181107 L92.0150818,48.4416422 C94.1384295,48.7606725 97.0855517,47.791116 98.6027418,46.2739259 L138.090461,6.78620718 C143.104097,1.77257112 152.694234,-0.710161175 159.514089,1.23803681 L206.428665,12.6362944 C208.516096,13.1433625 210.607752,14.4448373 212.30643,16.1435155 L77.0565722,151.393373 L47.0930717,121.429873 C45.5760929,119.912894 43.1208268,119.913105 41.6059608,121.427971 L26.4004667,136.633465 C23.4869378,139.546994 18.7606404,139.544881 15.8428859,136.627127 C13.5610793,134.34532 12.6904011,130.791829 13.4869206,128.275504 L37.3383487,53.0496237 Z" id="Fill-4" fill="#CDD5E3"></path>
                    <path d="M11.9097904,170.060727 C14.41851,167.552007 18.4856189,167.551584 20.9947609,170.060727 C23.5036918,172.569657 23.5043256,176.636555 20.9949722,179.145908 C18.4862527,181.654628 14.4191438,181.65505 11.9097904,179.145697 C9.40107088,176.636978 9.40043705,172.57008 11.9097904,170.060727 Z" id="Fill-7" fill="#6CC4B7"></path>
                    <path d="M58.3901899,160.765323 C60.8993319,158.256181 64.9668634,158.255336 67.4760055,160.764478 C69.9849363,163.273408 69.984725,167.340729 67.4751604,169.850293 L39.1657584,198.159695 C36.656405,200.669049 32.5890848,200.670105 30.0797315,198.160752 C27.5710119,195.652032 27.5712232,191.584289 30.0807879,189.074725 L58.3901899,160.765323 Z" id="Fill-9" fill="#FFBD32"></path>
                    <path d="M16.3460027,202.80951 C18.8551447,200.300368 22.9222536,200.299523 25.431607,202.808876 C27.9403266,205.317596 27.9422281,209.383226 25.4309732,211.89448 L11.2765891,226.048865 C8.76765829,228.557795 4.70012683,228.558641 2.19098474,226.049498 C-0.317946074,223.540568 -0.319636301,219.475149 2.19161858,216.963894 L16.3460027,202.80951 Z" id="Fill-11" fill="#90CC43"></path>
                    <path d="M39.7979033,142.172614 C42.3070454,139.663472 46.3743656,139.662838 48.8835077,142.17198 C51.3924385,144.680911 51.3941287,148.746329 48.8828738,151.257584 L34.7284898,165.411968 C32.2195589,167.920899 28.1522388,167.921955 25.6428854,165.412602 C23.1341659,162.903883 23.1322644,158.838253 25.6435192,156.326998 L39.7979033,142.172614 Z" id="Fill-14" fill="#FB672B"></path>
                    <path d="M63.249804,193.090704 C65.7589461,190.581562 69.826055,190.580717 72.3354083,193.09007 C74.8441279,195.59879 74.8460294,199.66442 72.3347745,202.175675 L58.1803904,216.330059 C55.6714596,218.83899 51.6039282,218.839835 49.0947861,216.330693 C46.5858552,213.821762 46.584165,209.756343 49.0954199,207.245088 L63.249804,193.090704 Z" id="Fill-16" fill="#01BEE3"></path>
                    <path d="M76.9835328,179.356975 C79.4922523,176.848256 83.5593612,176.847833 86.0685033,179.356975 C88.5774341,181.865906 88.5778567,185.932593 86.0685033,188.441946 C83.5597838,190.950666 79.4928862,190.951299 76.9835328,188.441946 C74.4748133,185.933226 74.4741794,181.866329 76.9835328,179.356975 Z" id="Fill-18" fill="#AA52E7"></path>
                    <path d="M174.805636,90.8315437 C172.296705,93.3404745 168.229385,93.3402633 165.720665,90.8315437 C163.211735,88.3226129 163.211735,84.255504 165.720665,81.7465732 C171.161506,76.3057322 171.225946,67.6029643 165.931944,62.3089618 C160.637941,57.0149594 151.935173,57.0793993 146.494333,62.5202402 C143.985402,65.029171 139.918082,65.0289598 137.409362,62.5202402 C134.900431,60.0113094 134.900431,55.9442005 137.409151,53.4350584 C147.83764,43.0069912 164.675049,42.8821257 175.016914,53.2239913 C185.35878,63.565857 185.233914,80.4032652 174.805636,90.8315437 Z" id="Fill-20" fill="#FFFFFF"></path>
                </g>
            </g>
        </g>
    </g>
</svg>