<?xml version="1.0" encoding="UTF-8"?>
<svg width="289px" height="290px" viewBox="0 0 289 290" version="1.1" xmlns="http://www.w3.org/2000/svg" xmlns:xlink="http://www.w3.org/1999/xlink">
    <!-- Generator: Sketch 44.1 (41455) - http://www.bohemiancoding.com/sketch -->
    <title>Stickers</title>
    <desc>Created with Sketch.</desc>
    <defs>
        <path d="M108.238323,0.139265807 L58.4124115,30.9566814 C51.3563365,34.9358602 45.6362576,44.802532 45.6362576,52.9954982 L45.6362576,117.526106 C45.6362576,120.003612 44.0462648,123.204882 42.0801629,124.679904 L6.81781308,151.134664 C0.326740123,156.004441 -1.92328038,165.850014 1.78999779,173.120952 L43.1327228,254.073794 C44.5153869,256.781177 48.073637,258.975944 51.0769718,258.975944 C56.4422332,258.975944 60.247572,255.114571 60.247572,250.351597 L60.247572,225.505555 C60.247572,223.029004 62.224565,221.021363 64.6655558,221.021363 L161.11073,221.021363 C163.551721,221.021363 165.528714,223.029004 165.528714,225.505555 L165.528714,250.351597 C165.528714,255.114571 169.334052,258.975944 174.028176,258.975944 C177.702649,258.975944 181.260899,256.781177 182.643563,254.073794 L223.986288,173.120952 C227.699566,165.850014 225.449545,156.004441 218.958472,151.134664 L183.696123,124.679904 C181.730021,123.204882 180.140028,120.003612 180.140028,117.526106 L180.140028,52.9954982 C180.140028,44.802532 174.419949,34.9358602 167.363874,30.9566814 L117.537962,0.139265807 L117.537962,0.139265807 C114.688568,-1.62308969 111.087718,-1.62308969 108.238323,0.139265807 Z" id="path-1"></path>
    </defs>
    <g id="✅-IDENTITY" stroke="none" stroke-width="1" fill="none" fill-rule="evenodd">
        <g id="Stickers">
            <g id="Group-Copy" transform="translate(139.000000, 149.000000) rotate(405.000000) translate(-139.000000, -149.000000) translate(26.000000, -23.000000)">
                <rect id="Rectangle-Copy" fill="#6CC4B7" x="75.8254694" y="282.08337" width="14.6210546" height="14.8464931" rx="7.31052732"></rect>
                <rect id="Rectangle-Copy-8" fill="#FFBD32" x="105.747628" y="236.508089" width="14.6210546" height="61.112309" rx="7.31052732"></rect>
                <rect id="Rectangle-Copy-9" fill="#90CC43" x="105.747628" y="305.216278" width="14.6210546" height="37.9794011" rx="7.31052732"></rect>
                <rect id="Rectangle-Copy-10" fill="#FB672B" x="75.8254694" y="236.508089" width="14.6210546" height="37.9794011" rx="7.31052732"></rect>
                <rect id="Rectangle-Copy-11" fill="#01BEE3" x="135.669786" y="258.950462" width="14.6210546" height="37.9794011" rx="7.31052732"></rect>
                <rect id="Rectangle-Copy-3" fill="#AA52E7" x="135.669786" y="236.508089" width="14.6210546" height="14.8464931" rx="7.31052732"></rect>
                <g id="Rectangle-2" transform="translate(0.000000, 0.000000)">
                    <mask id="mask-2" fill="white">
                        <use xlink:href="#path-1"></use>
                    </mask>
                    <use id="Mask" fill="#CDD5E3" xlink:href="#path-1"></use>
                    <rect fill="#8B99B3" mask="url(#mask-2)" x="113.228167" y="-2" width="112.208094" height="260.950462"></rect>
                </g>
                <path d="M143.150326,91.6684635 C143.150326,74.6264949 129.702044,60.7670417 113.058155,60.7670417 C96.4142663,60.7670417 82.9659844,74.6264949 82.9659844,91.6684635 C82.9659844,95.7682094 86.239019,99.0917101 90.2765118,99.0917101 C94.3140045,99.0917101 97.5870391,95.7682094 97.5870391,91.6684635 C97.5870391,82.7771559 104.538135,75.6135349 113.058155,75.6135349 C121.578175,75.6135349 128.529271,82.7771559 128.529271,91.6684635 C128.529271,95.7682094 131.802306,99.0917101 135.839798,99.0917101 C139.877291,99.0917101 143.150326,95.7682094 143.150326,91.6684635 Z" id="Oval-3-Copy-2" fill="#FFFFFF" fill-rule="nonzero"></path>
            </g>
            <path d="M204.418482,252.132362 C204.094641,251.846348 204.034005,251.327831 204.283273,250.973903 L206.719519,247.514746 C206.899268,247.237127 207.13893,247.098319 207.438511,247.098319 C207.666193,247.098319 207.857922,247.179793 208.013704,247.342744 C208.169487,247.505694 208.241385,247.701836 208.229402,247.931174 C208.229402,248.10016 208.18147,248.263108 208.085604,248.420024 L205.49307,252.040778 C205.24097,252.392862 204.774505,252.446799 204.450238,252.160408 L204.418482,252.132362 Z M158.84163,254.286888 L155.492565,254.286888 C155.291321,254.286888 155.108639,254.210766 154.955451,254.064145 C154.809156,253.906273 154.734286,253.720534 154.734286,253.491377 C154.734286,253.282063 154.809156,253.09937 154.955451,252.950429 C155.108639,252.807056 155.291321,252.733978 155.492565,252.727685 L158.84163,252.727685 C159.042875,252.727685 159.225556,252.803808 159.378744,252.950429 C159.52504,253.108301 159.599909,253.29404 159.599909,253.523197 C159.599909,253.732511 159.52504,253.915204 159.378744,254.064145 C159.225556,254.207518 159.042875,254.280595 158.84163,254.286888 Z M143.65618,259.674095 C143.500374,259.517177 143.422472,259.324049 143.422472,259.094708 L143.422472,248.720056 L139.755056,248.720056 C139.539325,248.720056 139.359551,248.647633 139.21573,248.502786 C139.071909,248.357938 139,248.176881 139,247.95961 C139,247.742339 139.071909,247.558264 139.21573,247.407382 C139.359551,247.256499 139.539325,247.181058 139.755056,247.181058 L148.707865,247.181058 C148.923597,247.181058 149.106366,247.256499 149.25618,247.407382 C149.405993,247.558264 149.480899,247.742339 149.480899,247.95961 C149.480899,248.176881 149.405993,248.357938 149.25618,248.502786 C149.106366,248.647633 148.923597,248.720056 148.707865,248.720056 L145.058427,248.720056 L145.058427,259.094708 C145.058427,259.324049 144.977529,259.517177 144.81573,259.674095 C144.653932,259.831013 144.459177,259.909471 144.231461,259.909471 C144.003744,259.909471 143.811986,259.831013 143.65618,259.674095 Z M151.692135,259.583565 C151.536329,259.426647 151.458427,259.23352 151.458427,259.004178 L151.458427,248.013928 C151.458427,247.784586 151.536329,247.588441 151.692135,247.425487 C151.847941,247.262534 152.039699,247.181058 152.267416,247.181058 L159.476404,247.181058 C159.692136,247.181058 159.874906,247.256499 160.024719,247.407382 C160.174533,247.558264 160.249438,247.742339 160.249438,247.95961 C160.249438,248.176881 160.174533,248.357938 160.024719,248.502786 C159.874906,248.647633 159.692136,248.720056 159.476404,248.720056 L153.094382,248.720056 L153.094382,258.279944 L159.476404,258.279944 C159.692136,258.279944 159.874906,258.355385 160.024719,258.506267 C160.174533,258.65715 160.249438,258.841225 160.249438,259.058496 C160.249438,259.275767 160.174533,259.456824 160.024719,259.601671 C159.874906,259.746519 159.692136,259.818942 159.476404,259.818942 L152.267416,259.818942 C152.039699,259.818942 151.847941,259.740484 151.692135,259.583565 Z M163.260674,259.483983 C163.03895,259.260677 162.92809,258.992109 162.92809,258.678273 L162.92809,247.923398 C162.92809,247.694056 163.005992,247.497912 163.161798,247.334958 C163.317604,247.172005 163.509362,247.090529 163.737079,247.090529 C163.964795,247.090529 164.15955,247.172005 164.321348,247.334958 C164.483147,247.497912 164.564045,247.694056 164.564045,247.923398 L164.564045,258.171309 L170.442697,258.171309 C170.670413,258.171309 170.865168,258.252785 171.026966,258.415738 C171.188765,258.578692 171.269663,258.774836 171.269663,259.004178 C171.269663,259.23352 171.188765,259.426647 171.026966,259.583565 C170.865168,259.740484 170.670413,259.818942 170.442697,259.818942 L164.060674,259.818942 C163.749062,259.818942 163.482398,259.70729 163.260674,259.483983 Z M175.530337,259.167131 C174.583516,258.611882 173.852437,257.845409 173.337079,256.867688 C172.82172,255.889967 172.55206,254.767416 172.52809,253.5 C172.55206,252.232584 172.82172,251.110033 173.337079,250.132312 C173.852437,249.154591 174.583516,248.388118 175.530337,247.832869 C176.477158,247.27762 177.579769,247 178.838202,247 C180.096636,247 181.19625,247.27762 182.137079,247.832869 C183.077907,248.388118 183.808986,249.157609 184.330337,250.141365 C184.851688,251.125121 185.124344,252.244655 185.148315,253.5 C185.124344,254.755345 184.851688,255.874879 184.330337,256.858635 C183.808986,257.842391 183.077907,258.611882 182.137079,259.167131 C181.19625,259.72238 180.096636,260 178.838202,260 C177.579769,260 176.477158,259.72238 175.530337,259.167131 Z M181.337079,257.809192 C182.044198,257.37465 182.583519,256.783198 182.955056,256.034819 C183.326594,255.28644 183.51236,254.441509 183.51236,253.5 C183.51236,252.558491 183.326594,251.71356 182.955056,250.965181 C182.583519,250.216802 182.044198,249.62535 181.337079,249.190808 C180.629959,248.756265 179.797009,248.538997 178.838202,248.538997 C177.867411,248.538997 177.031464,248.756265 176.330337,249.190808 C175.62921,249.62535 175.092886,250.216802 174.721348,250.965181 C174.349811,251.71356 174.164045,252.558491 174.164045,253.5 C174.164045,254.441509 174.349811,255.28644 174.721348,256.034819 C175.092886,256.783198 175.62921,257.37465 176.330337,257.809192 C177.031464,258.243735 177.867411,258.461003 178.838202,258.461003 C179.797009,258.461003 180.629959,258.243735 181.337079,257.809192 Z M187.557303,259.130919 C187.413482,259.070566 187.293633,258.970985 187.197753,258.832173 C187.101872,258.69336 187.053933,258.545498 187.053933,258.388579 C187.053933,258.183379 187.122846,258.00534 187.260674,257.854457 C187.398503,257.703574 187.57528,257.628134 187.791011,257.628134 C187.910862,257.628134 188.024719,257.652275 188.132584,257.700557 C189.235212,258.195453 190.415724,258.442897 191.674157,258.442897 C193.771546,258.442897 194.820225,257.748846 194.820225,256.360724 C194.820225,255.998605 194.685395,255.696844 194.41573,255.455432 C194.146066,255.214019 193.813485,255.02391 193.417978,254.885097 C193.02247,254.746285 192.45918,254.580317 191.72809,254.387187 C190.757299,254.133703 189.972288,253.889277 189.373034,253.6539 C188.77378,253.418522 188.258429,253.065462 187.826966,252.594708 C187.395503,252.123953 187.179775,251.49629 187.179775,250.711699 C187.179775,250.023673 187.359549,249.399028 187.719101,248.837744 C188.078653,248.27646 188.608985,247.829853 189.310112,247.497911 C190.011239,247.165969 190.853179,247 191.835955,247 C193.154314,247 194.346811,247.199162 195.413483,247.597493 C195.749065,247.718199 195.916854,247.959608 195.916854,248.321727 C195.916854,248.514857 195.850937,248.689879 195.719101,248.846797 C195.587265,249.003715 195.413484,249.082173 195.197753,249.082173 C195.125842,249.082173 195.029963,249.058032 194.910112,249.009749 C193.975276,248.683842 193.010492,248.520891 192.01573,248.520891 C191.068909,248.520891 190.298879,248.701948 189.705618,249.064067 C189.112357,249.426186 188.81573,249.933144 188.81573,250.584958 C188.81573,251.019501 188.956553,251.372561 189.238202,251.64415 C189.519852,251.91574 189.873406,252.126972 190.298876,252.277855 C190.724347,252.428738 191.302618,252.588671 192.033708,252.75766 C192.980529,252.987002 193.744566,253.216341 194.325843,253.445682 C194.907119,253.675024 195.404492,254.031103 195.817978,254.513928 C196.231463,254.996753 196.438202,255.648557 196.438202,256.469359 C196.438202,257.145314 196.246444,257.751854 195.862921,258.288997 C195.479399,258.82614 194.940078,259.245588 194.244944,259.547354 C193.549809,259.849119 192.746821,260 191.835955,260 C190.31385,260 188.887647,259.710309 187.557303,259.130919 Z M202.379775,259.674095 C202.217977,259.517177 202.137079,259.324049 202.137079,259.094708 L202.137079,254.477716 L197.840449,248.412256 C197.744569,248.255338 197.696629,248.092387 197.696629,247.923398 C197.696629,247.694056 197.771535,247.497912 197.921348,247.334958 C198.071162,247.172005 198.259924,247.090529 198.48764,247.090529 C198.787267,247.090529 199.026965,247.229339 199.206742,247.506964 L203.773034,254.191306 L203.773034,259.094708 C203.773034,259.324049 203.695132,259.517177 203.539326,259.674095 C203.38352,259.831013 203.191761,259.909471 202.964045,259.909471 C202.736328,259.909471 202.541574,259.831013 202.379775,259.674095 Z M210.119101,259.130919 C209.97528,259.070566 209.855431,258.970985 209.759551,258.832173 C209.66367,258.69336 209.61573,258.545498 209.61573,258.388579 C209.61573,258.183379 209.684644,258.00534 209.822472,257.854457 C209.9603,257.703574 210.137078,257.628134 210.352809,257.628134 C210.47266,257.628134 210.586516,257.652275 210.694382,257.700557 C211.797009,258.195453 212.977522,258.442897 214.235955,258.442897 C216.333344,258.442897 217.382022,257.748846 217.382022,256.360724 C217.382022,255.998605 217.247192,255.696844 216.977528,255.455432 C216.707864,255.214019 216.375283,255.02391 215.979775,254.885097 C215.584268,254.746285 215.020977,254.580317 214.289888,254.387187 C213.319096,254.133703 212.534085,253.889277 211.934831,253.6539 C211.335578,253.418522 210.820227,253.065462 210.388764,252.594708 C209.957301,252.123953 209.741573,251.49629 209.741573,250.711699 C209.741573,250.023673 209.921347,249.399028 210.280899,248.837744 C210.640451,248.27646 211.170783,247.829853 211.87191,247.497911 C212.573037,247.165969 213.414976,247 214.397753,247 C215.716111,247 216.908609,247.199162 217.975281,247.597493 C218.310863,247.718199 218.478652,247.959608 218.478652,248.321727 C218.478652,248.514857 218.412735,248.689879 218.280899,248.846797 C218.149063,249.003715 217.975282,249.082173 217.759551,249.082173 C217.68764,249.082173 217.591761,249.058032 217.47191,249.009749 C216.537074,248.683842 215.57229,248.520891 214.577528,248.520891 C213.630707,248.520891 212.860677,248.701948 212.267416,249.064067 C211.674154,249.426186 211.377528,249.933144 211.377528,250.584958 C211.377528,251.019501 211.518351,251.372561 211.8,251.64415 C212.081649,251.91574 212.435204,252.126972 212.860674,252.277855 C213.286144,252.428738 213.864416,252.588671 214.595506,252.75766 C215.542327,252.987002 216.306364,253.216341 216.88764,253.445682 C217.468917,253.675024 217.96629,254.031103 218.379775,254.513928 C218.79326,254.996753 219,255.648557 219,256.469359 C219,257.145314 218.808242,257.751854 218.424719,258.288997 C218.041197,258.82614 217.501876,259.245588 216.806742,259.547354 C216.111607,259.849119 215.308619,260 214.397753,260 C212.875648,260 211.449445,259.710309 210.119101,259.130919 Z" id="Combined-Shape-Copy-2" fill="#496084" transform="translate(179.000000, 253.500000) rotate(342.000000) translate(-179.000000, -253.500000) "></path>
        </g>
    </g>
</svg>